<?xml version="1.0" encoding="UTF-8"?>
<!DOCTYPE svg PUBLIC "-//W3C//DTD SVG 1.1//EN" "http://www.w3.org/Graphics/SVG/1.1/DTD/svg11.dtd">
<!-- Creator: CorelDRAW 2021 (64-Bit) -->
<svg xmlns="http://www.w3.org/2000/svg" xml:space="preserve" width="328px" height="328px" version="1.1" style="shape-rendering:geometricPrecision; text-rendering:geometricPrecision; image-rendering:optimizeQuality; fill-rule:evenodd; clip-rule:evenodd"
viewBox="0 0 328 328"
 xmlns:xlink="http://www.w3.org/1999/xlink"
 xmlns:xodm="http://www.corel.com/coreldraw/odm/2003">
 <defs>
  <style type="text/css">
   <![CDATA[
    .str0 {stroke:#E0E0E0;stroke-width:0.9;stroke-miterlimit:10}
    .fil0 {fill:#FEFEFE}
    .fil23 {fill:#FEFEFE;fill-rule:nonzero}
    .fil5 {fill:#ED7068;fill-rule:nonzero}
    .fil1 {fill:#F4F4F4;fill-rule:nonzero}
    .fil8 {fill:#E9E9E9;fill-rule:nonzero}
    .fil7 {fill:#DE897E;fill-rule:nonzero}
    .fil2 {fill:#E0E0E0;fill-rule:nonzero}
    .fil24 {fill:#CD5446;fill-rule:nonzero}
    .fil10 {fill:#C96459;fill-rule:nonzero}
    .fil14 {fill:#953D36;fill-rule:nonzero}
    .fil25 {fill:#913E35;fill-rule:nonzero}
    .fil11 {fill:#B5B6B5;fill-rule:nonzero}
    .fil9 {fill:#ADACAD;fill-rule:nonzero}
    .fil17 {fill:#A4A5A4;fill-rule:nonzero}
    .fil20 {fill:#9D9E9E;fill-rule:nonzero}
    .fil21 {fill:#919191;fill-rule:nonzero}
    .fil13 {fill:#818382;fill-rule:nonzero}
    .fil26 {fill:#7E8181;fill-rule:nonzero}
    .fil27 {fill:#676868;fill-rule:nonzero}
    .fil15 {fill:#595959;fill-rule:nonzero}
    .fil16 {fill:#29383E;fill-rule:nonzero}
    .fil18 {fill:#242C2F;fill-rule:nonzero}
    .fil22 {fill:#242F34;fill-rule:nonzero}
    .fil28 {fill:#202629;fill-rule:nonzero}
    .fil4 {fill:#0E72BD;fill-rule:nonzero}
    .fil6 {fill:#183F61;fill-rule:nonzero}
    .fil3 {fill:gray;fill-rule:nonzero}
    .fil12 {fill:#B3B3B3;fill-rule:nonzero}
    .fil19 {fill:#E0E0E0;fill-rule:nonzero}
   ]]>
  </style>
 </defs>
 <g id="Слой_x0020_1">
  <metadata id="CorelCorpID_0Corel-Layer"/>
  <g id="_1663889226208">
   <circle class="fil0" cx="163.79" cy="164.21" r="164"/>
   <path class="fil1" d="M201.75 164.59c-26.31,-0.25 -50.11,-0.47 -67.37,-0.63 -8.61,-0.05 -15.58,-0.08 -20.42,-0.1 -2.4,0.01 -4.26,0.01 -5.55,0.01 -0.62,0.01 -1.1,0.02 -1.44,0.02 -0.33,0.01 -0.5,0.02 -0.5,0.03 0,0.01 0.17,0.02 0.5,0.03 0.34,0.01 0.82,0.02 1.44,0.03 1.29,0.02 3.15,0.04 5.55,0.07 4.84,0.02 11.81,0.06 20.42,0.11 17.25,0.01 41.06,0.02 67.37,0.04 26.3,0 50.11,0.03 67.35,0.15 8.62,0.06 15.6,0.14 20.42,0.23 2.41,0.05 4.28,0.1 5.55,0.14 1.27,0.05 1.93,0.1 1.93,0.15 0,0.04 -0.66,0.09 -1.93,0.12 -1.27,0.04 -3.14,0.06 -5.56,0.09 -4.82,0.04 -11.79,0.05 -20.41,0.02 -17.24,-0.05 -41.05,-0.25 -67.35,-0.51z"/>
   <path class="fil1" d="M201.23 170.36c-25.95,-4.22 -49.43,-8.04 -66.46,-10.81 -8.49,-1.34 -15.37,-2.42 -20.15,-3.17 -2.37,-0.36 -4.21,-0.64 -5.49,-0.83 -0.61,-0.08 -1.09,-0.15 -1.43,-0.2 -0.32,-0.04 -0.48,-0.05 -0.49,-0.04 0,0.01 0.16,0.04 0.48,0.1 0.34,0.06 0.81,0.14 1.42,0.25 1.27,0.21 3.11,0.52 5.48,0.91 4.77,0.76 11.65,1.85 20.15,3.19 17.05,2.62 40.56,6.23 66.55,10.21 25.98,3.97 49.5,7.6 66.51,10.32 8.5,1.36 15.38,2.5 20.13,3.32 2.37,0.4 4.21,0.73 5.46,0.97 1.24,0.24 1.9,0.39 1.89,0.44 -0.01,0.04 -0.68,-0.01 -1.94,-0.17 -1.26,-0.16 -3.11,-0.41 -5.49,-0.75 -4.77,-0.69 -11.67,-1.73 -20.18,-3.06 -17.02,-2.65 -40.51,-6.45 -66.44,-10.68z"/>
   <path class="fil1" d="M199.78 175.97c-24.94,-8.13 -47.51,-15.5 -63.87,-20.84 -8.18,-2.62 -14.8,-4.75 -19.39,-6.22 -2.28,-0.71 -4.06,-1.27 -5.29,-1.65 -0.59,-0.18 -1.05,-0.32 -1.38,-0.42 -0.31,-0.09 -0.47,-0.13 -0.47,-0.12 -0.01,0.01 0.15,0.07 0.45,0.18 0.33,0.11 0.78,0.27 1.37,0.47 1.22,0.4 2.98,0.98 5.25,1.73 4.6,1.48 11.21,3.61 19.39,6.24 16.41,5.19 39.05,12.35 64.06,20.27 25.02,7.89 47.65,15.07 64.01,20.36 8.18,2.65 14.79,4.82 19.34,6.36 2.28,0.76 4.04,1.37 5.24,1.8 1.19,0.43 1.8,0.67 1.79,0.72 -0.02,0.04 -0.66,-0.12 -1.88,-0.46 -1.22,-0.35 -3.01,-0.88 -5.31,-1.59 -4.6,-1.4 -11.24,-3.49 -19.43,-6.1 -16.38,-5.22 -38.96,-12.57 -63.88,-20.73z"/>
   <path class="fil1" d="M197.44 181.29c-23.31,-11.84 -44.41,-22.57 -59.7,-30.34 -7.65,-3.84 -13.84,-6.95 -18.14,-9.11 -2.14,-1.05 -3.8,-1.88 -4.95,-2.44 -0.56,-0.27 -0.99,-0.47 -1.3,-0.62 -0.29,-0.14 -0.45,-0.2 -0.45,-0.2 0,0.01 0.14,0.1 0.42,0.25 0.31,0.16 0.73,0.38 1.27,0.67 1.14,0.58 2.79,1.43 4.91,2.52 4.3,2.16 10.49,5.27 18.14,9.12 15.36,7.64 36.56,18.17 59.98,29.81 23.42,11.62 44.62,22.18 59.91,29.91 7.65,3.86 13.82,7.02 18.07,9.23 2.13,1.11 3.77,1.98 4.88,2.58 1.11,0.6 1.68,0.94 1.66,0.98 -0.02,0.04 -0.64,-0.21 -1.79,-0.74 -1.14,-0.53 -2.82,-1.33 -4.98,-2.38 -4.31,-2.09 -10.53,-5.17 -18.2,-9 -15.33,-7.67 -36.44,-18.37 -59.73,-30.24z"/>
   <path class="fil1" d="M194.27 186.2c-21.12,-15.25 -40.23,-29.05 -54.09,-39.05 -6.93,-4.95 -12.55,-8.97 -16.45,-11.75 -1.94,-1.37 -3.45,-2.43 -4.5,-3.17 -0.5,-0.34 -0.89,-0.61 -1.17,-0.8 -0.27,-0.18 -0.41,-0.27 -0.42,-0.26 -0.01,0 0.12,0.11 0.38,0.3 0.27,0.21 0.65,0.49 1.14,0.86 1.04,0.75 2.53,1.83 4.45,3.23 3.9,2.79 9.51,6.8 16.44,11.76 13.95,9.88 33.19,23.51 54.46,38.56 21.26,15.04 40.5,28.68 54.36,38.64 6.93,4.98 12.52,9.04 16.37,11.87 1.92,1.41 3.4,2.52 4.4,3.28 1,0.77 1.5,1.19 1.48,1.23 -0.03,0.04 -0.6,-0.31 -1.65,-1.01 -1.04,-0.7 -2.57,-1.74 -4.54,-3.1 -3.92,-2.73 -9.57,-6.71 -16.52,-11.66 -13.91,-9.9 -33.04,-23.68 -54.14,-38.93z"/>
   <path class="fil1" d="M190.36 190.56c-18.43,-18.26 -35.1,-34.78 -47.19,-46.75 -6.06,-5.94 -10.96,-10.75 -14.37,-14.1 -1.7,-1.64 -3.02,-2.92 -3.93,-3.8 -0.45,-0.42 -0.79,-0.75 -1.04,-0.98 -0.23,-0.22 -0.36,-0.33 -0.37,-0.32 0,0.01 0.11,0.13 0.33,0.36 0.24,0.24 0.57,0.58 1,1.02 0.89,0.89 2.2,2.19 3.87,3.86 3.4,3.35 8.31,8.16 14.36,14.11 12.2,11.86 29.02,28.23 47.62,46.32 18.6,18.07 35.41,34.46 47.52,46.39 6.05,5.97 10.92,10.82 14.26,14.19 1.68,1.69 2.97,3.01 3.83,3.92 0.86,0.9 1.3,1.4 1.26,1.43 -0.03,0.03 -0.53,-0.4 -1.46,-1.24 -0.92,-0.85 -2.27,-2.12 -3.99,-3.76 -3.44,-3.28 -8.38,-8.07 -14.46,-14.01 -12.15,-11.88 -28.84,-28.39 -47.24,-46.64z"/>
   <path class="fil1" d="M185.79 194.27c-15.28,-20.82 -29.1,-39.65 -39.13,-53.31 -5.03,-6.79 -9.1,-12.28 -11.93,-16.1 -1.42,-1.88 -2.52,-3.34 -3.28,-4.35 -0.38,-0.48 -0.66,-0.86 -0.87,-1.12 -0.2,-0.25 -0.3,-0.38 -0.31,-0.37 -0.01,0 0.08,0.14 0.26,0.4 0.2,0.28 0.47,0.66 0.82,1.16 0.75,1.02 1.82,2.5 3.21,4.4 2.83,3.82 6.9,9.31 11.93,16.1 10.15,13.57 24.15,32.28 39.62,52.96 15.49,20.66 29.48,39.39 39.52,53.01 5.02,6.81 9.06,12.33 11.82,16.18 1.39,1.92 2.45,3.42 3.15,4.44 0.71,1.03 1.06,1.58 1.02,1.61 -0.04,0.02 -0.46,-0.48 -1.24,-1.45 -0.78,-0.98 -1.9,-2.43 -3.34,-4.31 -2.87,-3.77 -6.99,-9.24 -12.04,-16.03 -10.11,-13.57 -23.95,-32.4 -39.21,-53.22z"/>
   <path class="fil1" d="M180.69 197.25c-11.74,-22.88 -22.37,-43.59 -30.07,-58.6 -3.88,-7.47 -7.02,-13.52 -9.2,-17.72 -1.1,-2.07 -1.95,-3.68 -2.54,-4.79 -0.29,-0.54 -0.52,-0.95 -0.68,-1.24 -0.15,-0.28 -0.24,-0.42 -0.25,-0.42 -0.01,0.01 0.06,0.16 0.2,0.44 0.15,0.3 0.35,0.72 0.62,1.27 0.57,1.12 1.4,2.75 2.46,4.83 2.18,4.2 5.32,10.25 9.19,17.72 7.85,14.95 18.67,35.56 30.62,58.33 11.97,22.76 22.78,43.38 30.51,58.36 3.86,7.49 6.96,13.56 9.07,17.77 1.06,2.11 1.86,3.75 2.4,4.87 0.53,1.12 0.79,1.72 0.74,1.75 -0.04,0.02 -0.38,-0.54 -0.99,-1.62 -0.61,-1.09 -1.49,-2.69 -2.61,-4.77 -2.23,-4.15 -5.41,-10.19 -9.31,-17.66 -7.8,-14.94 -18.44,-35.64 -30.16,-58.52z"/>
   <path class="fil1" d="M175.17 199.41c-7.9,-24.39 -15.04,-46.47 -20.21,-62.47 -2.63,-7.97 -4.75,-14.42 -6.22,-18.9 -0.75,-2.21 -1.33,-3.93 -1.73,-5.12 -0.21,-0.58 -0.36,-1.02 -0.47,-1.33 -0.11,-0.3 -0.17,-0.45 -0.18,-0.45 -0.01,0.01 0.03,0.16 0.12,0.47 0.1,0.32 0.24,0.76 0.41,1.34 0.39,1.2 0.94,2.93 1.65,5.15 1.47,4.48 3.59,10.94 6.21,18.91 5.32,15.95 12.67,37.96 20.79,62.28 8.14,24.31 15.47,46.33 20.68,62.3 2.61,7.98 4.69,14.45 6.09,18.94 0.7,2.24 1.23,3.99 1.57,5.17 0.35,1.19 0.51,1.82 0.46,1.84 -0.05,0.01 -0.29,-0.59 -0.72,-1.75 -0.43,-1.17 -1.04,-2.89 -1.8,-5.11 -1.54,-4.44 -3.7,-10.89 -6.34,-18.86 -5.29,-15.95 -12.45,-38.02 -20.31,-62.41z"/>
   <path class="fil1" d="M169.36 200.7c-3.85,-25.29 -7.32,-48.19 -9.84,-64.78 -1.3,-8.27 -2.36,-14.97 -3.09,-19.62 -0.38,-2.3 -0.67,-4.09 -0.88,-5.32 -0.1,-0.6 -0.18,-1.06 -0.24,-1.39 -0.06,-0.31 -0.1,-0.46 -0.11,-0.46 -0.01,0 0.01,0.16 0.05,0.47 0.04,0.33 0.11,0.8 0.19,1.39 0.18,1.24 0.45,3.04 0.79,5.34 0.73,4.65 1.78,11.35 3.07,19.62 2.68,16.57 6.37,39.43 10.45,64.69 4.1,25.25 7.78,48.11 10.34,64.68 1.28,8.29 2.28,15 2.94,19.64 0.33,2.32 0.57,4.12 0.72,5.35 0.15,1.23 0.2,1.87 0.15,1.88 -0.04,0.01 -0.19,-0.63 -0.42,-1.84 -0.24,-1.21 -0.56,-3.01 -0.96,-5.32 -0.79,-4.62 -1.89,-11.31 -3.21,-19.59 -2.63,-16.56 -6.13,-39.45 -9.95,-64.74z"/>
   <path class="fil1" d="M163.42 201.09c0.23,-25.57 0.45,-48.7 0.6,-65.48 0.04,-8.36 0.07,-15.14 0.09,-19.84 -0.01,-2.33 -0.01,-4.14 -0.02,-5.4 -0.01,-0.6 -0.01,-1.07 -0.02,-1.4 0,-0.31 -0.01,-0.48 -0.03,-0.48 0,0 -0.02,0.17 -0.03,0.48 0,0.33 -0.01,0.8 -0.03,1.4 -0.02,1.26 -0.04,3.07 -0.07,5.4 -0.02,4.7 -0.05,11.48 -0.09,19.84 0,16.78 0,39.91 -0.01,65.49 0.02,25.55 0,48.7 -0.11,65.45 -0.06,8.38 -0.14,15.16 -0.23,19.84 -0.04,2.34 -0.09,4.16 -0.14,5.4 -0.05,1.23 -0.1,1.88 -0.14,1.88 -0.05,0 -0.09,-0.65 -0.13,-1.88 -0.04,-1.24 -0.07,-3.06 -0.09,-5.4 -0.05,-4.69 -0.06,-11.47 -0.04,-19.84 0.04,-16.76 0.23,-39.9 0.49,-65.46z"/>
   <path class="fil1" d="M157.48 200.59c4.32,-25.23 8.24,-48.05 11.07,-64.59 1.38,-8.26 2.49,-14.95 3.26,-19.59 0.36,-2.31 0.65,-4.1 0.84,-5.34 0.09,-0.6 0.16,-1.06 0.21,-1.39 0.04,-0.31 0.06,-0.47 0.05,-0.47 -0.01,0 -0.05,0.15 -0.11,0.46 -0.07,0.33 -0.15,0.79 -0.26,1.39 -0.22,1.23 -0.53,3.02 -0.93,5.31 -0.78,4.65 -1.89,11.33 -3.27,19.59 -2.68,16.57 -6.38,39.43 -10.47,64.69 -4.06,25.25 -7.78,48.11 -10.57,64.64 -1.4,8.27 -2.56,14.95 -3.4,19.57 -0.42,2.31 -0.76,4.1 -1,5.31 -0.25,1.21 -0.4,1.84 -0.45,1.83 -0.05,0 0.01,-0.65 0.17,-1.88 0.16,-1.22 0.42,-3.02 0.77,-5.34 0.71,-4.64 1.78,-11.34 3.14,-19.61 2.71,-16.54 6.61,-39.38 10.95,-64.58z"/>
   <path class="fil1" d="M151.7 199.18c8.36,-24.24 15.92,-46.18 21.4,-62.09 2.7,-7.94 4.88,-14.38 6.39,-18.84 0.73,-2.22 1.3,-3.95 1.7,-5.14 0.18,-0.58 0.32,-1.02 0.42,-1.34 0.1,-0.31 0.14,-0.46 0.13,-0.47 -0.01,0 -0.07,0.15 -0.18,0.45 -0.12,0.31 -0.28,0.75 -0.48,1.32 -0.42,1.19 -1.02,2.91 -1.79,5.11 -1.51,4.47 -3.7,10.9 -6.4,18.85 -5.33,15.95 -12.69,37.96 -20.81,62.27 -8.11,24.32 -15.48,46.32 -20.92,62.22 -2.72,7.95 -4.95,14.38 -6.52,18.81 -0.79,2.21 -1.42,3.93 -1.86,5.08 -0.43,1.16 -0.69,1.76 -0.73,1.75 -0.05,-0.02 0.11,-0.65 0.47,-1.83 0.35,-1.19 0.9,-2.93 1.63,-5.16 1.44,-4.47 3.58,-10.92 6.26,-18.89 5.37,-15.92 12.91,-37.87 21.29,-62.1z"/>
   <path class="fil1" d="M146.22 196.91c12.18,-22.66 23.2,-43.17 31.19,-58.04 3.94,-7.44 7.14,-13.46 9.36,-17.64 1.08,-2.07 1.92,-3.69 2.51,-4.81 0.27,-0.54 0.48,-0.96 0.63,-1.26 0.15,-0.28 0.21,-0.43 0.2,-0.44 -0.01,0 -0.09,0.14 -0.25,0.41 -0.16,0.3 -0.39,0.71 -0.69,1.24 -0.6,1.11 -1.47,2.71 -2.58,4.77 -2.22,4.18 -5.42,10.2 -9.38,17.63 -7.85,14.94 -18.67,35.55 -30.64,58.32 -11.94,22.77 -22.79,43.37 -30.73,58.24 -3.97,7.44 -7.21,13.44 -9.49,17.58 -1.13,2.06 -2.03,3.66 -2.65,4.74 -0.62,1.07 -0.97,1.63 -1.01,1.61 -0.04,-0.02 0.22,-0.62 0.77,-1.74 0.54,-1.11 1.37,-2.75 2.44,-4.84 2.15,-4.2 5.31,-10.24 9.25,-17.69 7.88,-14.91 18.88,-35.43 31.07,-58.08z"/>
   <path class="fil1" d="M141.18 193.84c15.67,-20.54 29.85,-39.12 40.14,-52.6 5.09,-6.74 9.21,-12.2 12.08,-15.99 1.4,-1.89 2.5,-3.36 3.25,-4.37 0.36,-0.5 0.63,-0.88 0.83,-1.15 0.19,-0.26 0.28,-0.4 0.27,-0.4 -0.01,-0.01 -0.12,0.11 -0.32,0.36 -0.2,0.27 -0.5,0.64 -0.87,1.12 -0.77,1 -1.89,2.45 -3.32,4.32 -2.87,3.79 -7,9.25 -12.1,15.99 -10.15,13.56 -24.16,32.27 -39.64,52.95 -15.46,20.67 -29.49,39.37 -39.72,52.85 -5.12,6.75 -9.29,12.18 -12.2,15.92 -1.46,1.87 -2.6,3.31 -3.38,4.28 -0.79,0.97 -1.22,1.46 -1.26,1.44 -0.04,-0.03 0.32,-0.58 1.04,-1.6 0.71,-1.02 1.79,-2.51 3.19,-4.42 2.8,-3.81 6.89,-9.3 11.98,-16.06 10.17,-13.53 24.35,-32.13 40.03,-52.64z"/>
   <path class="fil1" d="M136.69 190.04c18.77,-17.92 35.75,-34.14 48.07,-45.89 6.11,-5.89 11.05,-10.66 14.49,-13.98 1.69,-1.65 3.01,-2.94 3.91,-3.82 0.44,-0.44 0.77,-0.77 1.01,-1.01 0.22,-0.23 0.33,-0.35 0.33,-0.36 -0.01,-0.01 -0.13,0.1 -0.37,0.32 -0.25,0.23 -0.6,0.55 -1.05,0.97 -0.92,0.87 -2.25,2.14 -3.97,3.77 -3.44,3.31 -8.39,8.07 -14.51,13.96 -12.2,11.86 -29.03,28.23 -47.63,46.31 -18.58,18.09 -35.43,34.44 -47.7,46.21 -6.13,5.88 -11.12,10.63 -14.59,13.88 -1.74,1.62 -3.1,2.87 -4.03,3.71 -0.93,0.84 -1.44,1.27 -1.47,1.23 -0.03,-0.03 0.41,-0.52 1.28,-1.42 0.87,-0.89 2.17,-2.2 3.86,-3.88 3.37,-3.34 8.29,-8.15 14.4,-14.06 12.22,-11.82 29.19,-28.05 47.97,-45.94z"/>
   <path class="fil1" d="M132.86 185.6c21.41,-14.86 40.79,-28.31 54.83,-38.06 6.98,-4.9 12.63,-8.86 16.55,-11.61 1.94,-1.38 3.44,-2.45 4.48,-3.19 0.5,-0.37 0.88,-0.65 1.16,-0.85 0.26,-0.19 0.38,-0.29 0.38,-0.3 -0.01,-0.01 -0.15,0.08 -0.42,0.26 -0.28,0.19 -0.67,0.45 -1.19,0.8 -1.05,0.72 -2.57,1.77 -4.52,3.12 -3.93,2.75 -9.58,6.71 -16.57,11.6 -13.95,9.87 -33.2,23.49 -54.46,38.54 -21.25,15.06 -40.51,28.67 -54.52,38.44 -7,4.89 -12.68,8.82 -16.63,11.5 -1.98,1.35 -3.52,2.38 -4.58,3.07 -1.05,0.68 -1.62,1.03 -1.65,0.99 -0.02,-0.04 0.49,-0.45 1.49,-1.21 1.01,-0.76 2.5,-1.85 4.44,-3.25 3.87,-2.79 9.5,-6.8 16.48,-11.71 13.96,-9.83 33.32,-23.3 54.73,-38.14z"/>
   <path class="fil1" d="M129.8 180.64c23.53,-11.42 44.83,-21.76 60.27,-29.26 7.68,-3.77 13.9,-6.83 18.22,-8.95 2.13,-1.07 3.79,-1.9 4.94,-2.48 0.55,-0.28 0.97,-0.5 1.27,-0.65 0.29,-0.15 0.43,-0.24 0.43,-0.24 -0.01,-0.01 -0.16,0.05 -0.45,0.19 -0.31,0.14 -0.74,0.34 -1.31,0.6 -1.15,0.56 -2.82,1.36 -4.97,2.4 -4.32,2.12 -10.54,5.17 -18.23,8.94 -15.37,7.63 -36.57,18.16 -59.99,29.8 -23.41,11.64 -44.62,22.16 -60.03,29.68 -7.7,3.76 -13.95,6.78 -18.28,8.83 -2.17,1.03 -3.86,1.81 -5.01,2.33 -1.15,0.52 -1.77,0.77 -1.79,0.73 -0.02,-0.04 0.55,-0.37 1.66,-0.97 1.12,-0.59 2.77,-1.45 4.91,-2.53 4.27,-2.18 10.47,-5.28 18.16,-9.07 15.37,-7.59 36.66,-17.95 60.2,-29.35z"/>
   <path class="fil1" d="M127.57 175.28c25.09,-7.69 47.8,-14.64 64.26,-19.68 8.2,-2.56 14.83,-4.63 19.44,-6.06 2.28,-0.73 4.05,-1.29 5.28,-1.69 0.59,-0.19 1.04,-0.34 1.36,-0.45 0.31,-0.11 0.46,-0.16 0.46,-0.18 0,0 -0.16,0.04 -0.48,0.12 -0.33,0.1 -0.78,0.23 -1.38,0.4 -1.23,0.38 -3.01,0.92 -5.3,1.61 -4.61,1.43 -11.25,3.49 -19.45,6.04 -16.41,5.19 -39.05,12.35 -64.07,20.25 -25,7.93 -47.65,15.07 -64.08,20.14 -8.22,2.54 -14.88,4.56 -19.49,5.93 -2.3,0.68 -4.1,1.2 -5.32,1.53 -1.22,0.34 -1.87,0.49 -1.89,0.45 -0.01,-0.05 0.61,-0.29 1.8,-0.71 1.2,-0.41 2.97,-1 5.26,-1.75 4.56,-1.49 11.19,-3.6 19.4,-6.18 16.4,-5.14 39.11,-12.11 64.2,-19.77z"/>
   <path class="fil1" d="M126.24 169.64c26.02,-3.76 49.57,-7.15 66.64,-9.61 8.51,-1.27 15.4,-2.3 20.19,-3.01 2.36,-0.37 4.2,-0.66 5.48,-0.86 0.61,-0.1 1.08,-0.18 1.42,-0.24 0.32,-0.06 0.48,-0.09 0.48,-0.1 0,-0.01 -0.17,0 -0.49,0.04 -0.34,0.05 -0.82,0.11 -1.43,0.19 -1.28,0.18 -3.12,0.44 -5.49,0.77 -4.79,0.71 -11.68,1.73 -20.19,3 -17.05,2.61 -40.57,6.21 -66.55,10.2 -25.98,4 -49.5,7.58 -66.55,10.08 -8.52,1.25 -15.42,2.23 -20.2,2.87 -2.39,0.32 -4.24,0.56 -5.5,0.71 -1.27,0.14 -1.93,0.19 -1.94,0.15 -0.01,-0.05 0.65,-0.19 1.89,-0.42 1.25,-0.23 3.1,-0.54 5.47,-0.93 4.76,-0.77 11.65,-1.85 20.16,-3.13 17.04,-2.57 40.59,-5.98 66.61,-9.71z"/>
   <path class="fil1" d="M125.83 163.86c26.31,0.21 50.12,0.41 67.37,0.55 8.61,0.03 15.58,0.05 20.42,0.07 2.4,-0.01 4.26,-0.02 5.55,-0.02 0.62,-0.01 1.1,-0.02 1.45,-0.02 0.32,-0.01 0.49,-0.02 0.49,-0.03 0,-0.01 -0.17,-0.02 -0.49,-0.03 -0.35,-0.01 -0.83,-0.02 -1.45,-0.03 -1.29,-0.01 -3.15,-0.03 -5.55,-0.06 -4.84,-0.02 -11.81,-0.05 -20.42,-0.08 -17.25,0.01 -41.06,0.02 -67.37,0.04 -26.3,0.03 -50.11,0.02 -67.35,-0.08 -8.62,-0.05 -15.6,-0.12 -20.42,-0.2 -2.41,-0.05 -4.28,-0.09 -5.55,-0.14 -1.27,-0.04 -1.93,-0.09 -1.93,-0.14 0,-0.04 0.66,-0.09 1.93,-0.12 1.27,-0.04 3.14,-0.07 5.56,-0.1 4.82,-0.04 11.79,-0.06 20.41,-0.05 17.24,0.03 41.05,0.21 67.35,0.44z"/>
   <path class="fil1" d="M126.35 158.09c25.95,4.19 49.44,7.97 66.46,10.72 8.5,1.33 15.38,2.41 20.16,3.15 2.37,0.36 4.21,0.63 5.49,0.82 0.61,0.08 1.09,0.15 1.43,0.2 0.32,0.04 0.49,0.05 0.49,0.04 0,-0.01 -0.16,-0.04 -0.48,-0.1 -0.34,-0.06 -0.81,-0.14 -1.42,-0.25 -1.27,-0.21 -3.11,-0.51 -5.48,-0.9 -4.77,-0.75 -11.65,-1.83 -20.15,-3.17 -17.05,-2.59 -40.57,-6.17 -66.57,-10.13 -25.98,-3.93 -49.5,-7.53 -66.52,-10.24 -8.5,-1.35 -15.38,-2.47 -20.13,-3.28 -2.38,-0.41 -4.22,-0.74 -5.46,-0.98 -1.25,-0.23 -1.9,-0.38 -1.89,-0.43 0,-0.05 0.67,0.01 1.93,0.17 1.26,0.15 3.11,0.4 5.5,0.74 4.77,0.68 11.67,1.72 20.18,3.03 17.02,2.63 40.52,6.41 66.46,10.61z"/>
   <path class="fil1" d="M127.79 152.47c24.95,8.11 47.53,15.44 63.9,20.76 8.17,2.62 14.79,4.73 19.39,6.2 2.28,0.71 4.06,1.26 5.29,1.65 0.59,0.17 1.05,0.31 1.38,0.41 0.31,0.09 0.47,0.13 0.48,0.12 0,-0.01 -0.16,-0.07 -0.46,-0.18 -0.33,-0.11 -0.78,-0.26 -1.36,-0.46 -1.22,-0.41 -2.99,-0.99 -5.26,-1.73 -4.6,-1.47 -11.22,-3.59 -19.39,-6.21 -16.42,-5.17 -39.07,-12.31 -64.1,-20.19 -25.02,-7.86 -47.67,-15.01 -64.03,-20.29 -8.18,-2.64 -14.79,-4.8 -19.35,-6.33 -2.28,-0.76 -4.04,-1.37 -5.24,-1.8 -1.19,-0.42 -1.81,-0.67 -1.79,-0.71 0.01,-0.05 0.66,0.11 1.88,0.45 1.22,0.35 3.01,0.88 5.31,1.58 4.6,1.4 11.24,3.48 19.44,6.08 16.38,5.2 38.97,12.53 63.91,20.65z"/>
   <path class="fil1" d="M130.12 147.14c23.33,11.83 44.44,22.52 59.74,30.28 7.66,3.83 13.85,6.93 18.15,9.08 2.14,1.06 3.81,1.87 4.96,2.44 0.56,0.27 0.99,0.47 1.29,0.62 0.3,0.13 0.45,0.2 0.45,0.19 0.01,-0.01 -0.14,-0.09 -0.42,-0.24 -0.3,-0.16 -0.72,-0.38 -1.27,-0.67 -1.14,-0.58 -2.79,-1.43 -4.91,-2.51 -4.3,-2.16 -10.5,-5.26 -18.15,-9.1 -15.37,-7.62 -36.58,-18.13 -60.02,-29.75 -23.44,-11.59 -44.65,-22.12 -59.95,-29.83 -7.65,-3.85 -13.83,-7 -18.09,-9.2 -2.12,-1.11 -3.77,-1.98 -4.88,-2.58 -1.1,-0.6 -1.68,-0.94 -1.65,-0.98 0.02,-0.04 0.63,0.22 1.78,0.74 1.15,0.53 2.83,1.33 4.99,2.38 4.31,2.08 10.54,5.15 18.21,8.97 15.34,7.65 36.46,18.33 59.77,30.16z"/>
   <path class="fil1" d="M133.28 142.24c21.14,15.22 40.27,28.99 54.14,38.98 6.94,4.94 12.56,8.95 16.47,11.73 1.94,1.36 3.45,2.43 4.5,3.16 0.51,0.35 0.9,0.61 1.18,0.81 0.27,0.18 0.41,0.26 0.41,0.26 0.01,-0.01 -0.12,-0.12 -0.38,-0.31 -0.27,-0.2 -0.65,-0.49 -1.14,-0.85 -1.04,-0.75 -2.53,-1.83 -4.45,-3.23 -3.9,-2.78 -9.52,-6.79 -16.46,-11.74 -13.96,-9.86 -33.22,-23.47 -54.5,-38.5 -21.29,-15.01 -40.54,-28.63 -54.42,-38.57 -6.94,-4.97 -12.53,-9.02 -16.38,-11.84 -1.92,-1.42 -3.41,-2.52 -4.41,-3.29 -0.99,-0.76 -1.5,-1.18 -1.47,-1.22 0.02,-0.04 0.59,0.31 1.64,1.01 1.05,0.69 2.58,1.74 4.54,3.1 3.93,2.71 9.58,6.69 16.54,11.63 13.93,9.88 33.07,23.64 54.19,38.87z"/>
   <path class="fil1" d="M137.19 137.87c18.45,18.24 35.14,34.73 47.24,46.69 6.07,5.94 10.98,10.74 14.39,14.08 1.7,1.64 3.03,2.92 3.94,3.8 0.45,0.42 0.79,0.75 1.04,0.98 0.24,0.22 0.36,0.32 0.37,0.32 0,-0.01 -0.11,-0.13 -0.33,-0.36 -0.24,-0.24 -0.57,-0.58 -0.99,-1.02 -0.91,-0.89 -2.21,-2.19 -3.88,-3.86 -3.41,-3.34 -8.32,-8.14 -14.38,-14.09 -12.22,-11.85 -29.06,-28.2 -47.68,-46.26 -18.62,-18.05 -35.46,-34.41 -47.58,-46.33 -6.06,-5.96 -10.94,-10.8 -14.29,-14.18 -1.67,-1.68 -2.96,-3 -3.82,-3.91 -0.87,-0.9 -1.3,-1.39 -1.27,-1.43 0.04,-0.03 0.54,0.4 1.46,1.24 0.93,0.85 2.27,2.11 4,3.75 3.44,3.28 8.39,8.06 14.47,14 12.17,11.86 28.89,28.35 47.31,46.58z"/>
   <path class="fil1" d="M141.75 134.16c15.31,20.79 29.16,39.61 39.2,53.26 5.04,6.78 9.12,12.27 11.96,16.08 1.42,1.88 2.52,3.34 3.28,4.35 0.37,0.48 0.66,0.85 0.87,1.12 0.2,0.25 0.3,0.38 0.31,0.37 0.01,-0.01 -0.08,-0.14 -0.26,-0.4 -0.2,-0.28 -0.47,-0.66 -0.82,-1.16 -0.75,-1.02 -1.83,-2.5 -3.22,-4.4 -2.83,-3.81 -6.91,-9.3 -11.95,-16.09 -10.17,-13.55 -24.19,-32.25 -39.69,-52.91 -15.51,-20.64 -29.52,-39.35 -39.59,-52.96 -5.03,-6.8 -9.08,-12.32 -11.84,-16.16 -1.39,-1.92 -2.45,-3.41 -3.16,-4.44 -0.7,-1.02 -1.06,-1.58 -1.02,-1.6 0.04,-0.03 0.47,0.47 1.25,1.44 0.78,0.98 1.9,2.43 3.34,4.31 2.88,3.76 7,9.23 12.06,16.01 10.13,13.56 24,32.38 39.28,53.18z"/>
   <path class="fil1" d="M146.85 131.17c11.77,22.87 22.42,43.56 30.15,58.56 3.89,7.47 7.03,13.51 9.22,17.71 1.1,2.07 1.96,3.68 2.55,4.79 0.29,0.54 0.51,0.95 0.67,1.24 0.16,0.28 0.24,0.42 0.25,0.41 0.01,0 -0.05,-0.15 -0.19,-0.44 -0.15,-0.3 -0.36,-0.72 -0.63,-1.26 -0.57,-1.12 -1.4,-2.75 -2.47,-4.83 -2.18,-4.2 -5.32,-10.25 -9.21,-17.71 -7.86,-14.93 -18.71,-35.53 -30.69,-58.29 -12,-22.75 -22.83,-43.36 -30.58,-58.32 -3.88,-7.49 -6.99,-13.56 -9.1,-17.77 -1.06,-2.1 -1.87,-3.74 -2.4,-4.86 -0.54,-1.12 -0.8,-1.72 -0.75,-1.74 0.04,-0.02 0.38,0.53 0.99,1.62 0.62,1.08 1.5,2.68 2.62,4.76 2.23,4.15 5.42,10.18 9.33,17.64 7.82,14.94 18.49,35.63 30.24,58.49z"/>
   <path class="fil1" d="M152.37 129c7.92,24.38 15.09,46.45 20.29,62.45 2.63,7.96 4.77,14.41 6.24,18.89 0.76,2.21 1.34,3.93 1.74,5.12 0.2,0.57 0.36,1.01 0.47,1.33 0.11,0.3 0.17,0.45 0.18,0.45 0.01,-0.01 -0.03,-0.17 -0.12,-0.47 -0.1,-0.32 -0.24,-0.76 -0.41,-1.34 -0.39,-1.2 -0.94,-2.93 -1.66,-5.15 -1.48,-4.48 -3.6,-10.93 -6.23,-18.9 -5.35,-15.95 -12.73,-37.95 -20.88,-62.26 -8.17,-24.29 -15.53,-46.3 -20.76,-62.27 -2.61,-7.98 -4.7,-14.45 -6.11,-18.93 -0.7,-2.24 -1.23,-3.99 -1.58,-5.17 -0.35,-1.19 -0.51,-1.82 -0.46,-1.84 0.05,-0.01 0.29,0.59 0.72,1.75 0.43,1.16 1.04,2.89 1.81,5.1 1.54,4.45 3.72,10.89 6.37,18.86 5.3,15.94 12.49,38.01 20.39,62.38z"/>
   <path class="fil1" d="M158.17 127.7c3.88,25.3 7.39,48.18 9.93,64.77 1.31,8.27 2.37,14.97 3.11,19.61 0.38,2.3 0.68,4.09 0.89,5.33 0.1,0.6 0.18,1.05 0.24,1.38 0.06,0.31 0.1,0.47 0.11,0.47 0.01,0 -0.01,-0.16 -0.05,-0.48 -0.04,-0.33 -0.11,-0.79 -0.19,-1.39 -0.18,-1.24 -0.45,-3.03 -0.8,-5.34 -0.73,-4.65 -1.79,-11.34 -3.09,-19.61 -2.7,-16.57 -6.42,-39.42 -10.54,-64.68 -4.13,-25.24 -7.84,-48.1 -10.42,-64.66 -1.29,-8.29 -2.3,-15 -2.97,-19.64 -0.33,-2.32 -0.57,-4.12 -0.72,-5.35 -0.15,-1.22 -0.21,-1.87 -0.16,-1.88 0.05,0 0.2,0.63 0.43,1.84 0.24,1.21 0.56,3.01 0.96,5.32 0.8,4.62 1.91,11.31 3.23,19.59 2.66,16.55 6.19,39.44 10.04,64.72z"/>
   <path class="fil1" d="M164.12 127.3c-0.21,25.57 -0.39,48.71 -0.53,65.49 -0.02,8.36 -0.04,15.13 -0.06,19.84 0.01,2.33 0.02,4.14 0.03,5.39 0.01,0.61 0.01,1.07 0.02,1.41 0.01,0.31 0.02,0.47 0.03,0.47 0.01,0 0.02,-0.16 0.03,-0.47 0.01,-0.34 0.01,-0.8 0.03,-1.41 0.01,-1.25 0.03,-3.06 0.06,-5.39 0.02,-4.7 0.04,-11.48 0.07,-19.84 -0.02,-16.78 -0.05,-39.92 -0.08,-65.49 -0.05,-25.55 -0.06,-48.7 0.03,-65.45 0.05,-8.38 0.12,-15.16 0.2,-19.84 0.04,-2.35 0.09,-4.17 0.13,-5.4 0.05,-1.11 0.09,-1.74 0.13,-1.86l0.03 0c0.04,0.12 0.08,0.75 0.12,1.86 0.04,1.24 0.07,3.05 0.1,5.4 0.05,4.68 0.07,11.46 0.06,19.84 -0.02,16.76 -0.18,39.9 -0.4,65.45z"/>
   <path class="fil1" d="M170.05 127.8c-4.29,25.23 -8.17,48.06 -10.99,64.61 -1.36,8.26 -2.46,14.95 -3.22,19.59 -0.37,2.31 -0.65,4.1 -0.84,5.34 -0.09,0.59 -0.16,1.06 -0.2,1.39 -0.05,0.31 -0.06,0.47 -0.05,0.47 0.01,0 0.04,-0.15 0.11,-0.46 0.06,-0.33 0.14,-0.79 0.25,-1.39 0.22,-1.23 0.53,-3.02 0.93,-5.32 0.76,-4.64 1.87,-11.33 3.24,-19.59 2.66,-16.57 6.33,-39.43 10.38,-64.7 4.03,-25.25 7.72,-48.12 10.49,-64.65 1.38,-8.27 2.54,-14.96 3.37,-19.58 0.42,-2.3 0.75,-4.09 1,-5.31 0.24,-1.21 0.39,-1.84 0.44,-1.83 0.05,0.01 -0.01,0.65 -0.17,1.88 -0.16,1.22 -0.41,3.02 -0.76,5.34 -0.7,4.64 -1.76,11.34 -3.11,19.62 -2.69,16.54 -6.56,39.38 -10.87,64.59z"/>
   <path class="fil1" d="M175.84 129.2c-8.33,24.26 -15.86,46.21 -21.32,62.12 -2.69,7.95 -4.86,14.38 -6.37,18.85 -0.73,2.22 -1.3,3.95 -1.69,5.14 -0.18,0.58 -0.32,1.02 -0.42,1.34 -0.1,0.31 -0.14,0.46 -0.13,0.47 0.01,0 0.08,-0.15 0.19,-0.45 0.11,-0.31 0.27,-0.75 0.47,-1.32 0.42,-1.19 1.01,-2.91 1.78,-5.12 1.51,-4.46 3.69,-10.9 6.38,-18.85 5.31,-15.96 12.63,-37.97 20.73,-62.3 8.07,-24.32 15.41,-46.34 20.83,-62.25 2.71,-7.95 4.93,-14.38 6.5,-18.81 0.79,-2.21 1.41,-3.93 1.84,-5.09 0.44,-1.16 0.7,-1.76 0.74,-1.74 0.05,0.01 -0.11,0.64 -0.47,1.83 -0.35,1.18 -0.9,2.92 -1.62,5.16 -1.43,4.47 -3.57,10.93 -6.24,18.89 -5.34,15.93 -12.86,37.89 -21.2,62.13z"/>
   <path class="fil1" d="M181.32 131.46c-12.15,22.68 -23.14,43.21 -31.11,58.09 -3.94,7.44 -7.13,13.46 -9.34,17.64 -1.08,2.08 -1.92,3.7 -2.5,4.82 -0.28,0.54 -0.49,0.96 -0.64,1.26 -0.14,0.28 -0.21,0.43 -0.2,0.44 0.01,0 0.1,-0.14 0.25,-0.41 0.17,-0.3 0.4,-0.71 0.69,-1.24 0.6,-1.11 1.46,-2.71 2.58,-4.78 2.22,-4.18 5.41,-10.2 9.35,-17.64 7.83,-14.94 18.63,-35.57 30.57,-58.35 11.91,-22.79 22.73,-43.4 30.65,-58.28 3.96,-7.45 7.2,-13.45 9.46,-17.59 1.14,-2.07 2.03,-3.67 2.65,-4.74 0.62,-1.08 0.96,-1.64 1.01,-1.62 0.04,0.03 -0.22,0.62 -0.77,1.74 -0.54,1.11 -1.36,2.75 -2.43,4.85 -2.15,4.2 -5.3,10.24 -9.23,17.7 -7.85,14.91 -18.83,35.45 -30.99,58.11z"/>
   <path class="fil1" d="M186.37 134.53c-15.65,20.56 -29.81,39.16 -40.07,52.65 -5.09,6.75 -9.21,12.21 -12.07,16.01 -1.4,1.89 -2.49,3.36 -3.24,4.37 -0.36,0.5 -0.64,0.88 -0.83,1.15 -0.19,0.26 -0.28,0.4 -0.27,0.4 0.01,0.01 0.11,-0.11 0.31,-0.36 0.21,-0.27 0.5,-0.64 0.88,-1.12 0.77,-1 1.88,-2.46 3.32,-4.33 2.86,-3.79 6.98,-9.25 12.07,-16 10.14,-13.57 24.12,-32.3 39.58,-53 15.42,-20.69 29.43,-39.41 39.65,-52.9 5.11,-6.75 9.27,-12.19 12.17,-15.93 1.45,-1.87 2.59,-3.32 3.38,-4.29 0.78,-0.97 1.22,-1.46 1.25,-1.44 0.04,0.03 -0.31,0.58 -1.03,1.6 -0.71,1.02 -1.79,2.51 -3.19,4.42 -2.79,3.82 -6.88,9.32 -11.96,16.08 -10.15,13.54 -24.3,32.16 -39.95,52.69z"/>
   <path class="fil1" d="M190.86 138.33c-18.75,17.94 -35.71,34.18 -48.01,45.95 -6.1,5.9 -11.04,10.67 -14.48,13.99 -1.68,1.65 -3,2.94 -3.9,3.83 -0.44,0.43 -0.77,0.77 -1.01,1.01 -0.22,0.23 -0.33,0.35 -0.33,0.36 0.01,0 0.14,-0.1 0.37,-0.32 0.25,-0.23 0.6,-0.55 1.05,-0.97 0.92,-0.88 2.25,-2.14 3.97,-3.77 3.43,-3.32 8.37,-8.09 14.48,-13.99 12.19,-11.87 29,-28.26 47.58,-46.36 18.55,-18.12 35.38,-34.49 47.64,-46.27 6.12,-5.9 11.1,-10.64 14.57,-13.9 1.74,-1.63 3.09,-2.88 4.02,-3.72 0.93,-0.84 1.44,-1.26 1.47,-1.23 0.04,0.03 -0.4,0.52 -1.27,1.42 -0.87,0.9 -2.17,2.21 -3.86,3.88 -3.37,3.35 -8.28,8.16 -14.39,14.08 -12.2,11.84 -29.15,28.09 -47.9,46.01z"/>
   <path class="fil1" d="M194.69 142.76c-21.39,14.89 -40.75,28.36 -54.78,38.13 -6.97,4.9 -12.62,8.87 -16.54,11.63 -1.93,1.38 -3.43,2.46 -4.47,3.2 -0.5,0.36 -0.88,0.64 -1.15,0.84 -0.26,0.19 -0.39,0.3 -0.38,0.31 0,0 0.14,-0.08 0.41,-0.26 0.28,-0.19 0.68,-0.46 1.19,-0.8 1.05,-0.73 2.57,-1.78 4.52,-3.13 3.92,-2.75 9.57,-6.72 16.55,-11.62 13.94,-9.89 33.17,-23.54 54.42,-38.61 21.22,-15.09 40.47,-28.72 54.46,-38.51 6.99,-4.89 12.67,-8.83 16.62,-11.52 1.97,-1.35 3.51,-2.38 4.57,-3.07 1.05,-0.69 1.62,-1.03 1.65,-0.99 0.03,0.03 -0.49,0.45 -1.49,1.21 -1,0.75 -2.5,1.85 -4.43,3.25 -3.87,2.8 -9.49,6.81 -16.47,11.73 -13.94,9.85 -33.29,23.34 -54.68,38.21z"/>
   <path class="fil1" d="M197.76 147.71c-23.52,11.46 -44.81,21.83 -60.23,29.34 -7.68,3.79 -13.9,6.85 -18.21,8.98 -2.13,1.07 -3.79,1.9 -4.93,2.48 -0.55,0.28 -0.98,0.5 -1.28,0.65 -0.29,0.16 -0.43,0.24 -0.42,0.25 0,0 0.15,-0.06 0.45,-0.19 0.31,-0.15 0.74,-0.35 1.3,-0.61 1.15,-0.56 2.82,-1.37 4.97,-2.41 4.32,-2.12 10.54,-5.18 18.22,-8.96 15.35,-7.65 36.54,-18.21 59.95,-29.87 23.39,-11.68 44.59,-22.22 59.99,-29.76 7.7,-3.77 13.94,-6.79 18.27,-8.85 2.17,-1.03 3.85,-1.82 5.01,-2.34 1.15,-0.52 1.76,-0.77 1.78,-0.73 0.03,0.04 -0.55,0.38 -1.66,0.97 -1.11,0.6 -2.76,1.45 -4.9,2.54 -4.27,2.18 -10.47,5.29 -18.15,9.09 -15.36,7.61 -36.64,17.99 -60.16,29.42z"/>
   <path class="fil1" d="M200 153.08c-25.09,7.71 -47.78,14.69 -64.24,19.76 -8.19,2.56 -14.83,4.64 -19.43,6.08 -2.28,0.73 -4.05,1.3 -5.27,1.69 -0.59,0.2 -1.04,0.35 -1.37,0.46 -0.31,0.1 -0.46,0.16 -0.46,0.17 0.01,0.01 0.17,-0.03 0.48,-0.12 0.33,-0.09 0.79,-0.23 1.38,-0.4 1.23,-0.37 3.01,-0.92 5.3,-1.61 4.61,-1.44 11.24,-3.51 19.44,-6.07 16.41,-5.21 39.04,-12.39 64.05,-20.33 24.99,-7.96 47.63,-15.12 64.05,-20.22 8.21,-2.54 14.87,-4.58 19.48,-5.95 2.31,-0.68 4.1,-1.2 5.32,-1.54 1.22,-0.34 1.87,-0.49 1.89,-0.45 0.01,0.05 -0.61,0.29 -1.8,0.71 -1.2,0.42 -2.97,1.01 -5.25,1.76 -4.57,1.5 -11.2,3.62 -19.4,6.2 -16.4,5.16 -39.09,12.16 -64.17,19.86z"/>
   <path class="fil1" d="M201.34 158.72c-26.02,3.78 -49.57,7.21 -66.64,9.69 -8.5,1.28 -15.39,2.31 -20.17,3.03 -2.37,0.37 -4.21,0.67 -5.48,0.87 -0.62,0.1 -1.09,0.18 -1.43,0.24 -0.32,0.05 -0.48,0.09 -0.48,0.1 0,0.01 0.17,-0.01 0.49,-0.04 0.34,-0.05 0.82,-0.11 1.43,-0.19 1.28,-0.18 3.12,-0.44 5.5,-0.78 4.78,-0.72 11.67,-1.75 20.18,-3.02 17.04,-2.64 40.55,-6.27 66.54,-10.28 25.96,-4.04 49.48,-7.65 66.53,-10.17 8.52,-1.26 15.42,-2.25 20.2,-2.9 2.38,-0.32 4.24,-0.56 5.5,-0.71 1.26,-0.15 1.93,-0.2 1.93,-0.15 0.01,0.04 -0.64,0.19 -1.89,0.42 -1.25,0.23 -3.09,0.54 -5.47,0.93 -4.75,0.78 -11.64,1.86 -20.15,3.16 -17.04,2.59 -40.58,6.03 -66.59,9.8z"/>
   <polygon class="fil2" points="220.21,79.12 230.06,67.11 226.04,65.56 229.18,56.8 220.21,67.16 224.83,68.5 "/>
   <polygon class="fil2" points="251.73,181.92 261.05,194.35 263.51,190.82 271.26,195.97 263.35,184.77 260.94,188.93 "/>
   <polygon class="fil2" points="82.96,77.08 92.89,106.12 99.68,100.98 111.11,115.38 103.06,89.52 95.99,95.88 "/>
   <polygon class="fil2" points="157.77,242.74 164.45,218.82 157.57,219.14 156.54,204.3 150.07,225.23 157.69,224.23 "/>
   <polygon class="fil2" points="124.54,81.42 124.48,92.62 127.44,91.66 129.65,98 129.97,88.12 126.78,89.46 "/>
   <polygon class="fil2" points="74.23,114.73 81.32,123.4 82.98,120.78 88.72,124.25 82.69,116.43 81.07,119.5 "/>
   <polygon class="fil2" points="178.39,207 178.34,218.19 181.29,217.24 183.5,223.57 183.83,213.69 180.63,215.03 "/>
   <path class="fil3" d="M94.89 174.09c3.18,11.08 -2.4,22.4 -12.45,25.28 -10.06,2.89 -20.79,-3.76 -23.96,-14.84 -3.18,-11.09 2.4,-22.41 12.45,-25.29 10.06,-2.88 20.78,3.77 23.96,14.85z"/>
   <path class="fil4" d="M97.28 173.68c5.2,14.8 2.23,29.33 -6.62,32.43 -8.86,3.11 -20.24,-6.38 -25.44,-21.18 -5.19,-14.8 -2.23,-29.32 6.63,-32.43 8.85,-3.11 20.24,6.38 25.43,21.18z"/>
   <path class="fil5" d="M140.25 159.53c5.69,16.21 1.93,32.29 -8.4,35.92 -10.33,3.62 -23.32,-6.58 -29,-22.8 -5.69,-16.21 -1.93,-32.29 8.4,-35.91 10.33,-3.63 23.31,6.58 29,22.79z"/>
   <path class="fil4" d="M127.71 242.98c-6.99,-14.42 -4.81,-37.43 -4.81,-37.43 0,0 -0.58,-4.23 0,-5.98 0.58,-1.74 8.95,-4.12 8.95,-4.12l-19.93 -58.93 -41.73 16.73 13.33 52.89c0,0 2.09,20.53 3.55,29.85 1.46,9.32 3.49,22.43 5.39,27.38 1.89,4.95 10.63,5.54 15.29,6.12 4.66,0.58 22.29,-8.01 24.1,-10.63 1.81,-2.62 2.85,-1.46 -4.14,-15.88z"/>
   <path class="fil6" d="M130.75 195.78c0.67,-0.21 1.1,-0.33 1.1,-0.33 -0.14,0.04 -0.27,0.09 -0.41,0.13 -0.14,0.04 -0.27,0.09 -0.41,0.12 -0.1,0.03 -0.19,0.05 -0.28,0.08zm1.1 -0.33l-0.81 -2.39c1.28,0.01 2.93,0.02 4.91,0.04 -1.22,1.02 -2.59,1.82 -4.1,2.35l0 0zm-19.05 -56.32l-0.88 -2.61 -2.37 0.95c0.54,-0.28 1.11,-0.53 1.7,-0.73 1.41,-0.5 2.86,-0.73 4.35,-0.73 0.6,0 1.21,0.04 1.82,0.11 -1.64,1.1 -3.02,1.99 -4.08,2.67 -0.19,0.12 -0.37,0.24 -0.54,0.34z"/>
   <path class="fil6" d="M127.5 196.18c-9.38,0 -19.74,-9.52 -24.65,-23.53 -5.37,-15.29 -2.33,-30.46 6.7,-35.18l2.37 -0.95 0.88 2.61c-0.51,0.33 -0.94,0.6 -1.26,0.8 -0.19,0.13 -0.34,0.23 -0.46,0.3 -0.1,0.06 -0.15,0.1 -0.15,0.11 -6.27,3.85 -8.19,15.54 -4.57,28.06 0.13,0.46 0.25,0.88 0.38,1.25 0.15,0.48 0.32,0.96 0.48,1.45 4.51,12.85 13.37,21.77 20.96,21.77l0.04 0.12 0 0c0,0.01 0.06,0.01 0.17,0.02 0.13,0 0.3,0.01 0.5,0.01 0.47,0.01 1.11,0.02 1.94,0.03 0.07,0 0.14,0 0.21,0.01l0.81 2.39 0 0c0,0 -0.43,0.12 -1.1,0.33l0 0c-1.06,0.27 -2.15,0.4 -3.25,0.4z"/>
   <path class="fil2" d="M110.92 140.34c0,0 20.54,-12.15 31.14,-24.24 8.63,-9.83 20.48,-26.39 20.48,-26.39l54.51 114.46c0,0 -28.37,-10.86 -54.51,-11.11 -24.94,-0.23 -34.32,-0.07 -34.32,-0.07l-17.3 -52.65z"/>
   <path class="fil2 str0" d="M136.59 160.79c5.12,14.6 2.7,28.73 -5.41,31.58 -8.11,2.84 -18.84,-6.68 -23.96,-21.27 -5.12,-14.6 -2.69,-28.73 5.42,-31.58 8.1,-2.84 18.83,6.68 23.95,21.27z"/>
   <path class="fil7" d="M106.74 169.65c-0.13,-0.37 -0.25,-0.79 -0.38,-1.25 0.12,0.42 0.25,0.83 0.38,1.25z"/>
   <path class="fil8" d="M137.21 162.7c-0.19,-0.63 -0.4,-1.27 -0.62,-1.91 -1.59,-4.53 -3.72,-8.57 -6.15,-11.91 10.15,-7.03 19.08,-16.13 26.92,-25.95 1.08,8.8 3.15,18.13 6.25,27.59 0.81,2.47 1.67,4.9 2.58,7.27 -0.69,-0.02 -1.38,-0.03 -2.07,-0.03 -9.33,0 -18.28,1.88 -26.91,4.94z"/>
   <path class="fil8" d="M109.42 176.38c0,0 -1.7,-3.92 -2.67,-6.69 0,-0.02 -0.01,-0.03 -0.01,-0.04 -0.13,-0.42 -0.26,-0.83 -0.38,-1.25 -0.82,-3.02 -1.54,-7.55 -1.54,-7.55 9.3,-2.37 17.82,-6.56 25.62,-11.97 2.43,3.34 4.56,7.38 6.15,11.91 0.22,0.64 0.43,1.28 0.62,1.91 -9.64,3.42 -18.87,8.31 -27.79,13.68z"/>
   <path class="fil6" d="M92.66 263.83c-0.07,-0.15 -0.14,-0.3 -0.2,-0.46l0 0c-0.31,-0.81 -0.63,-1.84 -0.94,-3.03 -0.06,-0.24 -0.12,-0.48 -0.19,-0.73 -1.39,-5.57 -2.78,-14.19 -3.9,-21.32 -0.05,-0.31 -0.1,-0.62 -0.14,-0.91 -0.08,-0.47 -0.15,-0.94 -0.22,-1.39 -0.64,-4.11 -1.41,-10.39 -2.06,-16.13 -0.04,-0.29 -0.07,-0.59 -0.1,-0.88 -0.79,-6.92 -1.39,-12.84 -1.39,-12.84 0,0 22.54,-10.16 25.31,-10.16 0.12,0 0.2,0.02 0.24,0.06 1.1,0.91 -2.01,20.16 2.93,33.79 4.6,12.68 8.73,21.19 9.21,22.4l-0.02 0.01c-0.63,0.18 -1.26,0.36 -1.89,0.55 -0.26,0.08 -0.52,0.17 -0.79,0.25 -0.2,0.06 -0.4,0.12 -0.6,0.18 -0.19,0.06 -0.39,0.12 -0.59,0.18l0 0c-0.29,0.1 -0.59,0.19 -0.88,0.28l0 0c-0.37,0.12 -0.75,0.24 -1.12,0.37l0 0c-0.3,0.1 -0.6,0.2 -0.91,0.3l0 0c-0.37,0.12 -0.74,0.25 -1.11,0.37l0 0c-0.3,0.11 -0.6,0.21 -0.91,0.32l0 0c-0.37,0.13 -0.74,0.26 -1.12,0.4l0 0c-0.29,0.11 -0.59,0.21 -0.89,0.32 -0.2,0.07 -0.4,0.15 -0.59,0.22 -0.2,0.07 -0.4,0.15 -0.59,0.22l0 0c-0.28,0.11 -0.55,0.21 -0.83,0.32l0 0c-0.47,0.17 -0.93,0.36 -1.4,0.54 -0.01,0.01 -0.03,0.01 -0.04,0.02 -0.2,0.08 -0.4,0.15 -0.59,0.23 -0.65,0.26 -1.29,0.53 -1.93,0.79 -0.25,0.11 -0.51,0.22 -0.76,0.33 -0.41,0.18 -0.82,0.35 -1.23,0.53 -0.29,0.13 -0.57,0.26 -0.86,0.39l0 0c-0.37,0.17 -0.75,0.33 -1.12,0.51l0 0c-0.3,0.13 -0.59,0.27 -0.89,0.41l0 0c-0.18,0.09 -0.36,0.18 -0.54,0.26 -0.19,0.09 -0.37,0.18 -0.55,0.27 -0.29,0.14 -0.59,0.28 -0.88,0.43 -0.36,0.18 -0.73,0.36 -1.09,0.55 -0.29,0.14 -0.57,0.29 -0.85,0.43l0 0c-0.39,0.2 -0.76,0.41 -1.14,0.61l0 0c-0.26,0.14 -0.52,0.28 -0.78,0.42 -0.36,0.19 -0.71,0.39 -1.06,0.59z"/>
   <path class="fil9" d="M130.93 259.75l0 0c0.43,-0.34 0.75,-0.64 0.92,-0.89 0,-0.01 0,-0.01 0.01,-0.01 -0.01,0 -0.01,0.01 -0.01,0.01 -0.17,0.25 -0.49,0.55 -0.92,0.89z"/>
   <path class="fil9" d="M131.86 258.85c0,0 0,-0.01 0,-0.01 0,0 0,0.01 0,0.01zm0 -0.01c0,0 0,0 0.01,-0.01 -0.01,0.01 -0.01,0.01 -0.01,0.01zm0.01 -0.01c0,0 0,0 0,0 0,0 0,0 0,0zm0 -0.01c0,0 0.01,0 0.01,0 0,0 -0.01,0 -0.01,0zm0.01 0c0,-0.01 0,-0.01 0,-0.01 0,0 0,0 0,0.01z"/>
   <path class="fil6" d="M108.25 269.52c-0.02,0 -0.03,0 -0.04,0 -0.17,0 -0.32,-0.01 -0.46,-0.03l0 0c-4.51,-0.56 -12.84,-1.13 -15.09,-5.66 0.35,-0.2 0.7,-0.4 1.06,-0.59 0.26,-0.14 0.52,-0.28 0.78,-0.42l0 0c0.38,-0.2 0.75,-0.41 1.14,-0.61l0 0c0.28,-0.14 0.56,-0.29 0.85,-0.43 0.36,-0.19 0.73,-0.37 1.09,-0.55 0.29,-0.15 0.59,-0.29 0.88,-0.43 0.18,-0.09 0.36,-0.18 0.55,-0.27 0.18,-0.08 0.36,-0.17 0.54,-0.26l0 0c0.3,-0.14 0.59,-0.28 0.89,-0.41l0 0c0.37,-0.18 0.75,-0.34 1.12,-0.51l0 0c0.29,-0.13 0.57,-0.26 0.86,-0.39 0.41,-0.18 0.82,-0.35 1.23,-0.53 0.25,-0.11 0.51,-0.22 0.76,-0.33 0.64,-0.26 1.28,-0.53 1.93,-0.79 0.19,-0.08 0.39,-0.15 0.59,-0.23 0.01,-0.01 0.03,-0.01 0.04,-0.02 0.47,-0.18 0.93,-0.37 1.4,-0.54l0 0c0.28,-0.11 0.55,-0.21 0.83,-0.32l0 0c0.19,-0.07 0.39,-0.15 0.59,-0.22 0.19,-0.07 0.39,-0.15 0.59,-0.22 0.3,-0.11 0.6,-0.21 0.89,-0.32l0 0c0.38,-0.14 0.75,-0.27 1.12,-0.4l0 0c0.31,-0.11 0.61,-0.21 0.91,-0.32l0 0c0.37,-0.12 0.74,-0.25 1.11,-0.37l0 0c0.31,-0.1 0.61,-0.2 0.91,-0.3l0 0c0.37,-0.13 0.75,-0.25 1.12,-0.37l0 0c0.29,-0.09 0.59,-0.18 0.88,-0.28l0 0c0.2,-0.06 0.4,-0.12 0.59,-0.18 0.2,-0.06 0.4,-0.12 0.6,-0.18 0.27,-0.08 0.53,-0.17 0.79,-0.25 0.63,-0.19 1.26,-0.37 1.89,-0.55l0.02 -0.01 0.05 -0.01c4.32,0.9 7.86,1.76 11.72,2.7 0.58,2.19 -0.14,2.52 -1.1,3.89 0,0 0,0 0,0.01 0,0 0,0 0,0 0,0 -0.01,0 -0.01,0 0,0 0,0 0,0.01 0,0 0,0 0,0 0,0 0,0 0,0 -0.01,0.01 -0.01,0.01 -0.01,0.01l0 0c0,0 0,0.01 0,0.01 0,0 0,0 0,0 -0.01,0 -0.01,0 -0.01,0.01 -0.17,0.25 -0.49,0.55 -0.92,0.89 -3.98,3.16 -17.9,9.77 -22.68,9.77z"/>
   <path class="fil10" d="M94.5 262.82c0.38,-0.2 0.75,-0.41 1.14,-0.61 -0.39,0.2 -0.76,0.41 -1.14,0.61zm4.51 -2.29c0.18,-0.08 0.36,-0.17 0.54,-0.26 -0.18,0.09 -0.36,0.18 -0.54,0.26zm1.43 -0.67c0.37,-0.18 0.75,-0.34 1.12,-0.51 -0.37,0.17 -0.75,0.33 -1.12,0.51zm6.53 -2.8c0.47,-0.18 0.93,-0.37 1.4,-0.54 -0.47,0.17 -0.93,0.36 -1.4,0.54zm2.23 -0.86c0.19,-0.07 0.39,-0.15 0.59,-0.22 -0.2,0.07 -0.4,0.15 -0.59,0.22zm2.07 -0.76c0.38,-0.14 0.75,-0.27 1.12,-0.4 -0.37,0.13 -0.74,0.26 -1.12,0.4zm2.03 -0.72c0.37,-0.12 0.74,-0.25 1.11,-0.37 -0.37,0.12 -0.74,0.25 -1.11,0.37zm2.02 -0.67c0.37,-0.13 0.75,-0.25 1.12,-0.37 -0.37,0.12 -0.75,0.24 -1.12,0.37zm2 -0.65c0.2,-0.06 0.4,-0.12 0.59,-0.18 -0.19,0.06 -0.39,0.12 -0.59,0.18z"/>
   <path class="fil1" d="M115.27 201.03c0,0 -1.65,0.15 -2.1,0.6 -0.45,0.44 -1.04,21.56 1.05,25 0.13,0.21 -0.15,0.15 1.05,0.9 1.2,0.75 6.76,3.12 8.47,2.01 1.71,-1.11 5.75,-4.7 5.46,-6.2 -0.3,-1.5 -1.83,-2.64 -3.62,-6.11 -1.6,-3.12 -2.22,-13.06 -2.22,-13.06 -0.63,-0.28 -7.16,-3.29 -8.09,-3.14z"/>
   <path class="fil11" d="M123.36 204.17c-0.01,-0.01 -0.01,-0.01 -0.01,-0.01 0,0 0,0 0.01,0.01zm-0.01 -0.01c0,0 0,0 0,0 0,0 0,0 0,0zm-0.01 0l0 0 0 0zm0 0c0,0 0,0 0,0 0,0 0,0 0,0zm0 0c0,0 0,0 0,0 0,0 0,0 0,0zm0 0c-0.02,-0.01 -0.03,-0.01 -0.04,-0.02 0.01,0.01 0.02,0.01 0.04,0.02zm-0.04 -0.02c-0.02,-0.01 -0.03,-0.01 -0.05,-0.02 0.02,0.01 0.03,0.01 0.05,0.02zm-0.05 -0.02l0 0 0 0z"/>
   <path class="fil12" d="M129.2 223.39c-2.1,-1.2 -7.18,-2.54 -7.54,-2.63 -0.01,0 -0.01,0 -0.01,0 0,0 -0.01,0 -0.01,0 0,0 0,0 0,0 -0.04,0 -0.12,0.04 -0.21,0.11 -0.52,-0.73 -2.5,-3.72 -3.45,-8 -1.06,-4.77 -2.28,-11.28 -2.36,-11.81 1.58,0.3 6.66,2.62 7.63,3.06l0 0c0,0 0,0 0,0 0.02,0.01 0.03,0.01 0.05,0.02l0 0c0.01,0.01 0.02,0.01 0.04,0.02 0,0 0,0 0,0 0,0 0,0 0,0 0,0 0,0 0,0 0,0 0,0 0,0 0,0 0,0 0,0l0 0c0.01,0 0.01,0 0.01,0 0,0 0,0 0,0 0,0 0,0 0,0 0,0 0,0 0.01,0.01l0 0c0,0 0.62,9.94 2.22,13.06 1.79,3.47 3.32,4.61 3.62,6.11l0 0.05z"/>
   <path class="fil13" d="M123.74 229.54c0,0 0,0 0,0 0,0 0,0 0,0 1.65,-1.07 5.45,-4.43 5.47,-6.02 0,0.17 -0.05,0.36 -0.13,0.57 -0.68,1.72 -3.86,4.5 -5.33,5.45 0,0 0,0 -0.01,0z"/>
   <path class="fil14" d="M122.48 229.83c0.52,0 0.95,-0.09 1.26,-0.29 0,0 0,0 0,0 -0.31,0.2 -0.74,0.29 -1.26,0.29z"/>
   <path class="fil3" d="M122.46 229.83c-2.32,0 -6.21,-1.69 -7.18,-2.3 -0.25,-0.15 -0.43,-0.27 -0.57,-0.37 1.18,-1.17 5.63,-5.57 6.72,-6.29 0.1,-0.07 0.17,-0.11 0.21,-0.11 0,0 0.01,0 0.01,0 0.36,0.09 5.46,1.43 7.55,2.64l0 -0.01c0,0 0,0.01 0,0.01 0.01,0.04 0.01,0.08 0.01,0.12 -0.02,1.59 -3.82,4.95 -5.47,6.02 0,0 0,0 0,0 -0.31,0.2 -0.74,0.29 -1.26,0.29 0,0 -0.01,0 -0.02,0z"/>
   <path class="fil15" d="M129.2 223.4c-2.09,-1.21 -7.19,-2.55 -7.55,-2.64 0,0 -0.01,0 -0.01,0 0,0 0.01,0 0.01,0 0,0 0,0 0.01,0 0.36,0.09 5.44,1.43 7.54,2.63l0 0.01z"/>
   <path class="fil16" d="M131.5 254.89c0,0.01 -0.14,0 -0.4,-0.03 -0.26,-0.02 -0.64,-0.08 -1.13,-0.18 -0.98,-0.18 -2.37,-0.57 -4.07,-1.08 -0.85,-0.25 -1.79,-0.51 -2.81,-0.71 -1.02,-0.21 -2.12,-0.33 -3.26,-0.11 -2.3,0.39 -4.64,1.57 -7.22,2.41 -5.12,1.78 -9.61,3.76 -12.79,5.34 -1.59,0.79 -2.85,1.46 -3.73,1.94 -0.41,0.22 -0.75,0.4 -1,0.54 -0.23,0.12 -0.36,0.18 -0.36,0.18 -0.01,-0.01 0.11,-0.09 0.33,-0.23 0.22,-0.14 0.55,-0.34 0.98,-0.59 0.85,-0.51 2.11,-1.21 3.69,-2.02 3.16,-1.64 7.66,-3.65 12.79,-5.43 2.56,-0.84 4.9,-2.02 7.27,-2.4 0.58,-0.1 1.17,-0.14 1.73,-0.1 0.57,0.03 1.1,0.13 1.62,0.23 1.03,0.22 1.97,0.49 2.82,0.75 1.69,0.54 3.06,0.96 4.03,1.17 0.49,0.11 0.86,0.19 1.12,0.23 0.26,0.05 0.39,0.08 0.39,0.09z"/>
   <path class="fil16" d="M121.73 220.84c0.02,0.03 -0.38,0.38 -1.02,0.93 -0.65,0.55 -1.54,1.31 -2.5,2.18 -0.96,0.87 -1.8,1.69 -2.42,2.28 -0.61,0.59 -0.99,0.95 -1.02,0.92 -0.03,-0.02 0.3,-0.44 0.88,-1.07 0.57,-0.63 1.4,-1.47 2.36,-2.34 0.97,-0.88 1.89,-1.62 2.57,-2.13 0.68,-0.51 1.12,-0.8 1.15,-0.77z"/>
   <path class="fil16" d="M120.49 219.44c-0.01,0.01 -0.16,-0.19 -0.4,-0.57 -0.23,-0.37 -0.54,-0.94 -0.86,-1.67 -0.66,-1.45 -1.22,-3.59 -1.71,-5.95 -0.51,-2.36 -0.91,-4.51 -1.11,-6.09 -0.11,-0.78 -0.18,-1.42 -0.21,-1.86 -0.03,-0.44 -0.03,-0.69 -0.02,-0.69 0.03,0 0.07,0.24 0.13,0.68 0.08,0.49 0.18,1.11 0.3,1.84 0.26,1.56 0.68,3.7 1.19,6.06 0.49,2.36 1.01,4.48 1.62,5.93 0.58,1.47 1.12,2.29 1.07,2.32z"/>
   <path class="fil16" d="M128.69 223.15c-0.04,0.08 -1.56,-0.65 -3.53,-1.3 -1.96,-0.65 -3.61,-0.98 -3.6,-1.06 0.01,-0.04 0.43,-0.01 1.1,0.12 0.68,0.12 1.6,0.34 2.59,0.67 1,0.33 1.87,0.7 2.48,1.01 0.62,0.3 0.98,0.53 0.96,0.56z"/>
   <path class="fil6" d="M67.24 179.31c-1.64,-2.71 -2.3,-5.98 -1.86,-9.11l8.28 -3.18 2.23 8.84c-3.22,1.2 -6.24,2.39 -8.65,3.45z"/>
   <path class="fil6" d="M75.89 175.86l-2.23 -8.84 23.98 -9.21c-0.65,3.43 -0.37,7.04 0.81,10.33 0,0 -12.25,3.89 -22.56,7.72z"/>
   <path class="fil16" d="M111.25 136.74c0,0 -0.06,0.03 -0.19,0.09 -0.14,0.06 -0.33,0.14 -0.56,0.24 -0.5,0.21 -1.21,0.57 -2.06,1.13 -1.69,1.12 -3.89,3.25 -5.46,6.56 -1.6,3.28 -2.6,7.61 -2.64,12.44 -0.07,4.83 0.81,10.14 2.64,15.4 1.86,5.26 4.49,9.96 7.57,13.69 3.04,3.75 6.54,6.5 9.83,8.06 3.29,1.61 6.34,1.89 8.36,1.71 1.02,-0.09 1.8,-0.26 2.31,-0.4 0.25,-0.07 0.45,-0.13 0.59,-0.17 0.14,-0.03 0.21,-0.05 0.21,-0.04 0,0 -0.07,0.03 -0.2,0.07 -0.14,0.05 -0.33,0.11 -0.58,0.2 -0.52,0.15 -1.3,0.34 -2.32,0.45 -2.03,0.22 -5.12,-0.04 -8.46,-1.63 -3.34,-1.56 -6.87,-4.32 -9.95,-8.08 -3.11,-3.74 -5.76,-8.47 -7.63,-13.76 -1.85,-5.29 -2.73,-10.64 -2.64,-15.51 0.05,-4.86 1.09,-9.22 2.72,-12.52 1.61,-3.33 3.86,-5.47 5.59,-6.56 0.87,-0.56 1.59,-0.9 2.09,-1.1 0.25,-0.09 0.44,-0.16 0.58,-0.21 0.13,-0.05 0.2,-0.07 0.2,-0.06z"/>
   <path class="fil16" d="M123.05 199.8c0,0.01 -0.19,0.01 -0.54,-0.01 -0.35,-0.02 -0.85,-0.07 -1.47,-0.15 -1.25,-0.15 -2.95,-0.45 -4.8,-0.94 -1.84,-0.5 -3.47,-1.08 -4.62,-1.57 -0.58,-0.24 -1.04,-0.45 -1.35,-0.6 -0.32,-0.16 -0.49,-0.25 -0.48,-0.27 0.02,-0.04 0.73,0.25 1.9,0.68 1.17,0.43 2.79,0.99 4.63,1.48 1.83,0.49 3.52,0.82 4.75,1.02 1.22,0.21 1.99,0.31 1.98,0.36z"/>
   <path class="fil16" d="M107.55 195.96c0.04,0.07 -5.33,2.42 -11.98,5.23 -6.65,2.82 -12.07,5.05 -12.1,4.97 -0.03,-0.07 5.33,-2.41 11.99,-5.23 6.65,-2.82 12.06,-5.05 12.09,-4.97z"/>
   <path class="fil16" d="M162.54 89.71c0,0 -0.03,0.06 -0.1,0.16 -0.08,0.12 -0.18,0.27 -0.31,0.46 -0.29,0.41 -0.7,0.99 -1.23,1.74 -1.07,1.5 -2.64,3.66 -4.61,6.32 -1.97,2.65 -4.34,5.79 -7.04,9.22 -1.35,1.72 -2.79,3.51 -4.31,5.33 -0.76,0.92 -1.54,1.84 -2.35,2.77 -0.79,0.93 -1.67,1.83 -2.52,2.76 -3.54,3.6 -7.25,6.69 -10.69,9.37 -3.46,2.68 -6.67,4.95 -9.41,6.8 -2.74,1.85 -5,3.28 -6.57,4.25 -0.79,0.48 -1.41,0.85 -1.83,1.09 -0.2,0.12 -0.36,0.21 -0.48,0.28 -0.11,0.06 -0.16,0.09 -0.17,0.08 0,0 0.05,-0.04 0.16,-0.11 0.12,-0.07 0.27,-0.17 0.46,-0.3 0.43,-0.27 1.03,-0.65 1.8,-1.14 1.55,-1 3.8,-2.45 6.52,-4.32 2.71,-1.87 5.92,-4.15 9.35,-6.84 3.44,-2.69 7.12,-5.78 10.65,-9.36 0.85,-0.93 1.72,-1.82 2.52,-2.75 0.8,-0.92 1.59,-1.84 2.34,-2.76 1.53,-1.82 2.96,-3.61 4.32,-5.32 2.71,-3.42 5.09,-6.54 7.08,-9.18 1.98,-2.63 3.57,-4.77 4.69,-6.26 0.54,-0.73 0.97,-1.3 1.27,-1.71 0.14,-0.18 0.25,-0.32 0.34,-0.44 0.07,-0.09 0.11,-0.14 0.12,-0.14z"/>
   <path class="fil16" d="M128.22 192.99c0,0 0.06,-0.01 0.17,-0.01 0.13,-0.01 0.29,-0.01 0.5,-0.02 0.46,0 1.11,-0.01 1.93,-0.02 1.7,-0.01 4.12,-0.02 7.11,-0.03 6.02,0 14.3,0.01 23.44,0.01 9.18,-0.01 17.43,1.25 23.32,2.33 2.96,0.55 5.33,1.08 6.96,1.46 0.82,0.19 1.45,0.35 1.88,0.46 0.2,0.05 0.36,0.09 0.48,0.13 0.11,0.03 0.17,0.04 0.17,0.05 0,0 -0.06,0 -0.17,-0.03 -0.13,-0.02 -0.29,-0.05 -0.49,-0.1 -0.46,-0.09 -1.09,-0.23 -1.89,-0.4 -1.64,-0.35 -4.02,-0.84 -6.97,-1.36 -5.9,-1.04 -14.13,-2.26 -23.29,-2.25 -9.14,-0.04 -17.42,-0.07 -23.44,-0.1 -2.98,-0.02 -5.41,-0.04 -7.1,-0.06 -0.83,-0.01 -1.47,-0.02 -1.94,-0.03 -0.2,0 -0.37,-0.01 -0.5,-0.01 -0.11,-0.01 -0.17,-0.01 -0.17,-0.02z"/>
   <path class="fil11" d="M194.3 197.55l-4.82 -1.17c0.82,0.16 1.53,0.31 2.15,0.44 0.8,0.17 1.43,0.31 1.89,0.4 0.2,0.05 0.36,0.08 0.49,0.1 0.03,0.01 0.06,0.01 0.08,0.02 0.07,0.07 0.14,0.14 0.21,0.21z"/>
   <path class="fil3" d="M194.06 197.31c-0.02,-0.01 -0.03,-0.01 -0.05,-0.01 -0.12,-0.04 -0.28,-0.08 -0.48,-0.13 -0.43,-0.11 -1.06,-0.27 -1.88,-0.46 -0.77,-0.18 -1.72,-0.39 -2.81,-0.63 -8.65,-9.47 -16.66,-22.7 -22.65,-38.29 1.11,0.04 2.21,0.09 3.33,0.18 6.5,16.38 15.23,30.06 24.54,39.34zm-36.7 -74.38c-1.15,-9.3 -1.2,-18.01 -0.22,-25.7 1.24,-1.67 2.29,-3.12 3.13,-4.28 -1.32,7.88 -1.48,16.99 -0.42,26.78 -0.82,1.07 -1.65,2.14 -2.49,3.2z"/>
   <path class="fil17" d="M169.52 157.97c-1.12,-0.09 -2.22,-0.14 -3.33,-0.18 -0.91,-2.37 -1.77,-4.8 -2.58,-7.27 -3.1,-9.46 -5.17,-18.79 -6.25,-27.59 0.84,-1.06 1.67,-2.13 2.49,-3.2 1.02,9.33 3.15,19.28 6.46,29.38 0.99,3.03 2.07,5.99 3.21,8.86z"/>
   <path class="fil11" d="M159.68 93.51l0.65 -0.91c0,0.02 -0.01,0.04 -0.01,0.06 -0.2,0.27 -0.42,0.55 -0.64,0.85z"/>
   <path class="fil18" d="M157.14 97.23c0.01,-0.06 0.02,-0.13 0.03,-0.19l2.51 -3.53c0.22,-0.3 0.44,-0.58 0.64,-0.85 -0.02,0.09 -0.03,0.19 -0.05,0.29 -0.84,1.16 -1.89,2.61 -3.13,4.28z"/>
   <path class="fil18" d="M194.09 197.34c-0.02,-0.01 -0.05,-0.01 -0.08,-0.02 -0.13,-0.02 -0.29,-0.05 -0.49,-0.1 -0.46,-0.09 -1.09,-0.23 -1.89,-0.4 -0.62,-0.13 -1.33,-0.28 -2.15,-0.44l-0.47 -0.12c-0.06,-0.06 -0.11,-0.12 -0.17,-0.18 1.09,0.24 2.04,0.45 2.81,0.63 0.82,0.19 1.45,0.35 1.88,0.46 0.2,0.05 0.36,0.09 0.48,0.13 0.02,0 0.03,0 0.05,0.01 0.01,0.01 0.02,0.02 0.03,0.03z"/>
   <path class="fil4" d="M237.04 125.92c13.03,39.74 7.76,77.15 -11.77,83.55 -19.53,6.41 -45.93,-20.61 -58.96,-60.36 -13.03,-39.74 -7.77,-77.15 11.76,-83.55 19.53,-6.41 45.93,20.62 58.97,60.36z"/>
   <path class="fil19" d="M226.43 129.97c10.74,32.73 8.85,62.74 -4.22,67.03 -13.07,4.28 -32.36,-18.78 -43.1,-51.51 -10.73,-32.73 -8.84,-62.73 4.22,-67.02 13.07,-4.29 32.37,18.77 43.1,51.5z"/>
   <path class="fil6" d="M222.95 198.78c-2.15,0 -4.39,-0.52 -6.68,-1.51 0.28,0.05 0.56,0.1 0.84,0.13 0.64,0.1 1.23,0.13 1.77,0.13 0.77,0 1.41,-0.07 1.92,-0.16 0.01,0 0.03,-0.01 0.04,-0.01 0.48,-0.08 0.95,-0.2 1.41,-0.35 13.07,-4.29 14.96,-34.3 4.23,-67.03 -8.98,-27.36 -23.94,-47.97 -36.24,-51.48 -1.24,-0.36 -2.46,-0.54 -3.64,-0.54 -1.12,0 -2.21,0.16 -3.27,0.51 0,0 0.01,0 0,0l0 0c0,0 -0.1,0.03 -0.29,0.1 -0.08,0.03 -0.16,0.06 -0.24,0.09 -0.13,0.05 -0.28,0.11 -0.46,0.19 1.34,-1.19 2.82,-2.08 4.47,-2.62 1.24,-0.4 2.53,-0.6 3.85,-0.6 14.04,0 32.14,22.25 42.23,53.02 11.05,33.67 8.32,64.8 -6.09,69.52 -1.24,0.41 -2.53,0.61 -3.85,0.61z"/>
   <path class="fil20" d="M182.8 78.66c0.08,-0.03 0.16,-0.06 0.24,-0.09 -0.07,0.03 -0.15,0.06 -0.24,0.09zm0.3 -0.08c0.15,-0.07 0.23,-0.11 0.23,-0.11 0.01,0 0,0 0,0 1.06,-0.35 2.15,-0.51 3.27,-0.51 1.18,0 2.4,0.18 3.64,0.54 -1.23,-0.35 -2.43,-0.53 -3.6,-0.53 -1.12,0 -2.21,0.17 -3.26,0.51 -0.1,0.03 -0.19,0.06 -0.28,0.1z"/>
   <path class="fil4" d="M175.25 133.01l34.04 -7.37 6.18 18.83 -30.92 16.38c0,0 -8.74,-19.32 -9.3,-27.84z"/>
   <path class="fil11" d="M189.08 158.48c0,-0.01 -0.01,-0.01 -0.01,-0.02l0.37 -0.2 1.84 -0.97 -2.2 1.19z"/>
   <polygon class="fil11" points="180.81,131.8 180.81,131.8 184.75,130.95 184.75,130.95 "/>
   <path class="fil4" d="M189.44 158.26l1.81 -0.99c0.02,0.01 0.03,0.02 0.03,0.02l0 0 -1.84 0.97zm-7.47 -21.7c-0.4,-1.58 -0.79,-3.17 -1.16,-4.76l3.94 -0.85c-0.25,0.1 -1.69,2.47 -2.78,5.61zm-6.43 -2.6l-0.29 -0.95 0 0 0.05 -0.01c0.08,0.32 0.16,0.64 0.24,0.96z"/>
   <path class="fil4" d="M217.14 133.49c1.71,5.2 0.96,10.12 -1.67,10.98 -2.63,0.86 -6.14,-2.65 -7.85,-7.85 -1.71,-5.21 -0.96,-10.12 1.67,-10.98 2.63,-0.87 6.14,2.65 7.85,7.85z"/>
   <path class="fil16" d="M217.14 133.49c-0.01,0.01 -0.07,-0.15 -0.19,-0.45 -0.11,-0.3 -0.29,-0.74 -0.54,-1.29 -0.25,-0.55 -0.58,-1.22 -1.03,-1.95 -0.45,-0.74 -1.03,-1.54 -1.77,-2.31 -0.75,-0.76 -1.72,-1.54 -2.94,-1.8 -0.6,-0.12 -1.26,-0.05 -1.82,0.29 -0.56,0.33 -1,0.89 -1.3,1.52 -0.59,1.28 -0.75,2.81 -0.69,4.36 0.08,1.55 0.39,3.14 0.9,4.71 0.52,1.56 1.21,3.03 2.07,4.33 0.86,1.28 1.89,2.42 3.13,3.09 0.61,0.34 1.3,0.53 1.95,0.47 0.65,-0.06 1.23,-0.4 1.64,-0.85 0.83,-0.93 1.15,-2.13 1.3,-3.19 0.14,-1.06 0.14,-2.05 0.06,-2.91 -0.07,-0.85 -0.2,-1.59 -0.32,-2.18 -0.14,-0.6 -0.25,-1.05 -0.34,-1.36 -0.08,-0.31 -0.12,-0.47 -0.11,-0.48 0.01,0 0.07,0.16 0.17,0.46 0.11,0.3 0.24,0.76 0.39,1.35 0.13,0.6 0.28,1.33 0.37,2.2 0.09,0.86 0.11,1.86 -0.02,2.95 -0.14,1.08 -0.44,2.32 -1.32,3.32 -0.44,0.49 -1.08,0.87 -1.8,0.94 -0.71,0.08 -1.45,-0.13 -2.09,-0.48 -1.31,-0.71 -2.36,-1.87 -3.25,-3.18 -0.88,-1.31 -1.58,-2.8 -2.11,-4.39 -0.51,-1.59 -0.83,-3.21 -0.9,-4.79 -0.06,-1.58 0.1,-3.14 0.73,-4.48 0.31,-0.67 0.79,-1.27 1.41,-1.63 0.62,-0.37 1.35,-0.44 2,-0.31 1.3,0.29 2.28,1.11 3.03,1.89 0.76,0.81 1.33,1.62 1.76,2.37 0.45,0.75 0.76,1.43 1,1.99 0.24,0.57 0.4,1.01 0.49,1.32 0.1,0.31 0.15,0.47 0.14,0.47z"/>
   <path class="fil6" d="M213.76 140.5c-1.43,0 -3.14,-1.9 -4.02,-4.58 -0.98,-2.98 -0.55,-5.8 0.96,-6.29 0.15,-0.05 0.31,-0.08 0.47,-0.08 1.43,0 3.15,1.9 4.03,4.58 0.97,2.98 0.54,5.8 -0.96,6.29 -0.16,0.05 -0.31,0.08 -0.48,0.08z"/>
   <path class="fil16" d="M183.33 78.47c0,0 -0.11,0.05 -0.33,0.15 -0.22,0.1 -0.57,0.21 -1,0.44 -0.84,0.43 -2.04,1.2 -3.27,2.52 -2.5,2.64 -4.74,7.6 -5.7,14.01 -0.5,3.2 -0.76,6.75 -0.76,10.56 0.01,3.81 0.28,7.88 0.79,12.14 1.03,8.51 3.12,17.75 6.19,27.15 3.1,9.4 6.89,18.08 11.1,25.55 2.11,3.74 4.3,7.18 6.55,10.25 2.26,3.08 4.57,5.78 6.87,8.06 4.56,4.6 9.31,7.27 12.88,7.91 1.78,0.35 3.2,0.25 4.14,0.1 0.47,-0.07 0.82,-0.19 1.06,-0.24 0.24,-0.05 0.36,-0.07 0.36,-0.07 0,0 -0.48,0.16 -1.41,0.37 -0.94,0.16 -2.37,0.28 -4.17,-0.04 -1.79,-0.33 -3.91,-1.12 -6.13,-2.45 -2.23,-1.31 -4.56,-3.15 -6.87,-5.43 -2.32,-2.28 -4.65,-4.99 -6.92,-8.06 -2.26,-3.09 -4.48,-6.53 -6.59,-10.27 -4.24,-7.47 -8.04,-16.17 -11.15,-25.59 -3.07,-9.42 -5.16,-18.68 -6.17,-27.21 -0.51,-4.27 -0.77,-8.35 -0.77,-12.17 0.01,-3.82 0.28,-7.38 0.8,-10.59 0.51,-3.21 1.3,-6.07 2.32,-8.45 1,-2.38 2.24,-4.28 3.49,-5.6 1.26,-1.33 2.48,-2.08 3.34,-2.51 0.87,-0.38 1.35,-0.53 1.35,-0.53z"/>
   <path class="fil4" d="M191.25 157.27c-0.21,-0.11 -1.65,-0.87 -3.6,-2.55 -0.5,-1.35 -0.98,-2.69 -1.44,-4.05l23.23 -9.84c0.05,0.07 0.1,0.15 0.15,0.22 0.89,1.31 1.94,2.47 3.25,3.18 0.45,0.25 0.95,0.42 1.46,0.48l-23.05 12.56z"/>
   <path class="fil21" d="M189.07 158.46c0,0 0,0 0,0l0.37 -0.2 -0.37 0.2z"/>
   <path class="fil4" d="M189.07 158.46c-0.49,-1.24 -0.96,-2.49 -1.42,-3.74 1.95,1.68 3.39,2.44 3.6,2.55l-1.81 0.99 -0.37 0.2z"/>
   <path class="fil22" d="M214.3 144.71c-0.51,-0.06 -1.01,-0.23 -1.46,-0.48 -1.31,-0.71 -2.36,-1.87 -3.25,-3.18 -0.05,-0.07 -0.1,-0.15 -0.15,-0.22l0.13 -0.06c0,0 2.17,3.69 4.94,3.83l-0.21 0.11z"/>
   <path class="fil6" d="M168.29 114.33l-5.19 0c-1.48,-2.5 0,-9.04 0,-9.04l5.19 0 0 9.04z"/>
   <path class="fil6" d="M168.49 101.49c-0.61,-0.38 -1.38,-0.51 -2.2,-0.51 -1.18,0 -2.45,0.28 -3.46,0.51 -0.07,-11.09 3.45,-23.76 12.02,-31.01 3.38,-3.05 7.32,-4.96 11.53,-5.73 11.04,1.22 23.21,10.87 33.59,25.96 -6.82,-7.83 -14.41,-15.24 -24.25,-18.05 -2.19,-0.63 -4.49,-1 -6.77,-1 -2.27,0 -4.53,0.37 -6.63,1.23 -5.18,2.1 -8.88,6.92 -10.88,12.15 -2,5.22 -2.52,10.87 -2.95,16.45z"/>
   <path class="fil23" d="M237.43 190.82c0.01,0 -0.04,0.14 -0.15,0.39 -0.12,0.24 -0.26,0.62 -0.52,1.07 -0.46,0.93 -1.24,2.22 -2.4,3.68 -1.16,1.45 -2.74,3.03 -4.8,4.39 -1.03,0.67 -2.16,1.31 -3.42,1.79 -1.25,0.48 -2.6,0.85 -4.01,1.03 -2.86,0.34 -5.6,-0.34 -7.82,-1.37 -2.25,-1 -4.08,-2.28 -5.55,-3.4 -1.47,-1.13 -2.6,-2.12 -3.37,-2.82 -0.38,-0.34 -0.67,-0.62 -0.87,-0.81 -0.19,-0.19 -0.29,-0.29 -0.29,-0.3 0.01,-0.01 0.12,0.08 0.33,0.26 0.23,0.19 0.53,0.45 0.91,0.77 0.79,0.67 1.93,1.63 3.41,2.74 1.48,1.09 3.31,2.34 5.54,3.32 2.2,1 4.89,1.65 7.67,1.33 1.39,-0.18 2.71,-0.54 3.95,-1.01 1.23,-0.47 2.35,-1.1 3.37,-1.75 2.04,-1.33 3.63,-2.88 4.79,-4.3 1.17,-1.43 1.97,-2.69 2.46,-3.6 0.27,-0.44 0.43,-0.81 0.56,-1.05 0.13,-0.24 0.2,-0.37 0.21,-0.36z"/>
   <path class="fil24" d="M216.27 197.27c-10.14,-2 -22.33,-16.19 -31.52,-36.52l0.1 -0.06c1.66,3.68 3.42,7.17 5.27,10.43 2.11,3.74 4.33,7.18 6.59,10.27 2.27,3.07 4.6,5.78 6.92,8.06 2.31,2.28 4.64,4.12 6.87,5.43 2.05,1.23 4.02,2 5.72,2.36 0.02,0.01 0.03,0.02 0.05,0.03zm-40.97 -64.27c-6.22,-26.27 -3.87,-48.62 6.23,-53.88 -0.04,0.06 -0.07,0.12 -0.11,0.18 -0.79,0.45 -1.77,1.14 -2.78,2.21 -1.25,1.32 -2.49,3.22 -3.49,5.6 -1.02,2.38 -1.81,5.24 -2.32,8.45 -0.52,3.21 -0.79,6.77 -0.8,10.59 0,3.82 0.26,7.9 0.77,12.17 0.56,4.7 1.44,9.61 2.63,14.65l-0.13 0.03z"/>
   <path class="fil3" d="M219.03 197.45c-0.7,0 -1.49,-0.06 -2.38,-0.24 -3.57,-0.64 -8.32,-3.31 -12.88,-7.91 -2.3,-2.28 -4.61,-4.98 -6.87,-8.06 -2.25,-3.07 -4.44,-6.51 -6.55,-10.25 -1.83,-3.24 -3.58,-6.71 -5.23,-10.37l3.96 -2.14c1.54,3.92 3.21,7.79 5.01,11.6 3.04,6.45 6.52,12.82 11.56,17.86 4.71,4.72 10.98,8.19 17.61,8.51 -0.43,0.21 -0.87,0.4 -1.32,0.55 -0.47,0.15 -0.95,0.27 -1.43,0.35 -0.42,0.06 -0.92,0.1 -1.48,0.1zm-43.32 -64.54c-1.19,-5.03 -2.08,-9.94 -2.65,-14.62 -0.51,-4.26 -0.78,-8.33 -0.79,-12.14 0,-3.81 0.26,-7.36 0.76,-10.56 0.96,-6.41 3.2,-11.37 5.7,-14.01 0.94,-1.01 1.86,-1.7 2.62,-2.16 -2.23,3.93 -3.61,8.38 -4.27,12.86 -0.99,6.62 -0.53,13.37 0.29,20 0.8,6.57 1.95,13.08 3.44,19.52l-5.1 1.11z"/>
   <path class="fil25" d="M217.11 197.4c-0.28,-0.03 -0.56,-0.08 -0.84,-0.13 -0.02,-0.01 -0.03,-0.02 -0.05,-0.03 0.14,0.03 0.27,0.06 0.41,0.09 0.16,0.02 0.32,0.05 0.48,0.07z"/>
   <path class="fil6" d="M184.75 160.75c-2.16,-4.78 -4.15,-9.89 -5.91,-15.26 -1.28,-3.89 -2.38,-7.75 -3.3,-11.53l0.75 2.46c0.79,3.01 1.69,6.05 2.68,9.11 1.76,5.32 3.73,10.4 5.88,15.16l-0.1 0.06zm-2.98 -8.2c-0.81,-2.14 -1.59,-4.32 -2.34,-6.55l2.46 6.5 -0.12 0.05zm2.63 -1.11c-0.71,-0.84 -1.44,-1.78 -2.15,-2.82 -2.36,-3.46 -1.57,-8.31 -0.28,-12.06 1.23,4.75 2.65,9.46 4.24,14.11l-1.81 0.77z"/>
   <path class="fil26" d="M185.12 160.62c0,0 0,0 0,0l3.95 -2.16c0,0.01 0.01,0.01 0.01,0.02l-3.96 2.14z"/>
   <polygon class="fil26" points="175.71,132.91 175.71,132.91 180.81,131.8 180.81,131.8 "/>
   <path class="fil6" d="M181.89 152.5l-2.46 -6.5c-0.06,-0.18 -0.12,-0.37 -0.18,-0.56 -1.38,-4.23 -2.56,-8.42 -3.54,-12.53l5.1 -1.11c0.37,1.59 0.76,3.18 1.16,4.76 -1.29,3.75 -2.08,8.6 0.28,12.06 0.71,1.04 1.44,1.98 2.15,2.82l-2.51 1.06zm-5.6 -16.08l-0.75 -2.46c-0.08,-0.32 -0.16,-0.64 -0.24,-0.96l0.13 -0.03c0.27,1.14 0.56,2.29 0.86,3.45z"/>
   <path class="fil18" d="M218.67 197.51c-0.52,0 -1.04,-0.04 -1.56,-0.11 -0.16,-0.02 -0.32,-0.05 -0.48,-0.07 -0.14,-0.03 -0.27,-0.06 -0.41,-0.09 -1.7,-0.36 -3.67,-1.13 -5.72,-2.36 -2.23,-1.31 -4.56,-3.15 -6.87,-5.43 -2.32,-2.28 -4.65,-4.99 -6.92,-8.06 -2.26,-3.09 -4.48,-6.53 -6.59,-10.27 -1.85,-3.26 -3.61,-6.75 -5.27,-10.43 -2.15,-4.76 -4.12,-9.84 -5.88,-15.16 -0.99,-3.06 -1.89,-6.1 -2.68,-9.11 -0.3,-1.16 -0.59,-2.31 -0.86,-3.45l0 0c-1.19,-5.04 -2.07,-9.95 -2.63,-14.65 -0.51,-4.27 -0.77,-8.35 -0.77,-12.17 0.01,-3.82 0.28,-7.38 0.8,-10.59 0.51,-3.21 1.3,-6.07 2.32,-8.45 1,-2.38 2.24,-4.28 3.49,-5.6 1.01,-1.07 1.99,-1.76 2.78,-2.21 -0.02,0.04 -0.04,0.08 -0.07,0.12 -0.76,0.46 -1.68,1.15 -2.62,2.16 -2.5,2.64 -4.74,7.6 -5.7,14.01 -0.5,3.2 -0.76,6.75 -0.76,10.56 0.01,3.81 0.28,7.88 0.79,12.14 0.57,4.68 1.46,9.59 2.65,14.62l0 0c0.98,4.11 2.16,8.3 3.54,12.53 0.06,0.19 0.12,0.38 0.18,0.56 0.75,2.23 1.53,4.41 2.34,6.55l-0.13 0.06 3.34 8.08 0.14 -0.07c0,0 0,0 0,0 1.65,3.66 3.4,7.13 5.23,10.37 2.11,3.74 4.3,7.18 6.55,10.25 2.26,3.08 4.57,5.78 6.87,8.06 4.56,4.6 9.31,7.27 12.88,7.91 0.89,0.18 1.68,0.24 2.38,0.24 0.56,0 1.06,-0.04 1.48,-0.1 -0.6,0.11 -1.22,0.16 -1.84,0.16z"/>
   <path class="fil6" d="M183.83 157.65c-0.71,-1.66 -1.39,-3.37 -2.06,-5.1l0.12 -0.05 1.94 5.15zm3.82 -2.93c-0.99,-0.85 -2.1,-1.93 -3.25,-3.28l1.81 -0.77c0.46,1.36 0.94,2.7 1.44,4.05z"/>
   <path class="fil27" d="M185.12 160.62c-0.01,-0.02 -0.01,-0.04 -0.02,-0.06l3.97 -2.1c0,0 0,0 0,0l-3.95 2.16z"/>
   <path class="fil6" d="M185.1 160.56c-0.43,-0.96 -0.85,-1.93 -1.27,-2.91l-1.94 -5.15 2.51 -1.06c1.15,1.35 2.26,2.43 3.25,3.28 0.46,1.25 0.93,2.5 1.42,3.74l-3.97 2.1z"/>
   <path class="fil28" d="M184.98 160.69l-3.34 -8.08 0.13 -0.06c0.67,1.73 1.35,3.44 2.06,5.1 0.42,0.98 0.84,1.95 1.27,2.91 0.01,0.02 0.01,0.04 0.02,0.06l-0.14 0.07z"/>
   <polygon class="fil4" points="239.35,128.26 273.57,122.09 268.31,114.6 287.06,106.69 257.16,110.3 262.58,118.52 "/>
   <polygon class="fil4" points="236.19,106.2 257.92,88.83 249.47,85.19 257.02,71.45 239.35,86.31 246.67,89.77 "/>
   <polygon class="fil4" points="247.56,146.74 269.37,164.08 269.94,157.56 284.44,163.51 265.66,148.39 265.07,155.3 "/>
  </g>
 </g>
</svg>
