<?xml version="1.0" encoding="UTF-8"?>
<!DOCTYPE svg PUBLIC "-//W3C//DTD SVG 1.1//EN" "http://www.w3.org/Graphics/SVG/1.1/DTD/svg11.dtd">
<!-- Creator: CorelDRAW 2021 (64-Bit) -->
<svg xmlns="http://www.w3.org/2000/svg" xml:space="preserve" width="90px" height="101px" version="1.1" style="shape-rendering:geometricPrecision; text-rendering:geometricPrecision; image-rendering:optimizeQuality; fill-rule:evenodd; clip-rule:evenodd"
viewBox="0 0 90 100.21"
 xmlns:xlink="http://www.w3.org/1999/xlink"
 xmlns:xodm="http://www.corel.com/coreldraw/odm/2003">
 <defs>
  <style type="text/css">
   <![CDATA[
    .fil2 {fill:none}
    .fil1 {fill:#224995}
    .fil0 {fill:#0D8DC0}
   ]]>
  </style>
   <clipPath id="id0">
    <path d="M36.11 0.74l-19.63 0c-2.26,0.05 -4.01,0.13 -4.72,0.28 -1.22,0.24 -2.7,0.73 -3.68,1.21 -2.03,1 -4.2,2.76 -5.49,4.49 -3.71,4.94 -3.44,8.12 -3.44,16.33l0 59.3c0,6.84 0.78,10.06 5.23,14.54 3.56,3.58 7.76,4.02 12.56,4.06l3.15 0 8.34 0c1.67,-0.32 2.9,-1.11 3.42,-2.93 0.44,-1.53 -0.19,-2.85 -1.01,-3.71 -0.18,-0.19 -0.02,-0.05 -0.29,-0.29 -0.02,-0.02 -0.3,-0.25 -0.32,-0.27 -0.31,-0.23 -0.41,-0.29 -0.75,-0.42 -0.62,-0.24 -1.47,-0.22 -2.34,-0.21 -3.27,0.02 -12.44,0.23 -14.47,-0.41 -6.78,-2.12 -5.5,-8.97 -5.5,-14.27l0 -59.31c0,-4.15 0,-5.46 1.93,-7.86 1.72,-2.14 4.45,-2.72 7.27,-2.71 6.58,0.04 13.16,0.01 19.74,0.01 6.86,0 13.72,0 20.58,0 3.31,0 7.05,-0.3 9.46,0.72 6.17,2.6 4.63,9.87 4.63,15.91 0,3.46 0,6.92 0,10.38 0,3.94 -0.56,6.71 2.04,8.33 1.15,0.72 3.03,0.65 4.07,-0.07 1.05,-0.73 1.8,-1.78 1.91,-3.38 0.23,-3.05 0.01,-16.36 0.01,-20.54 0,-7.15 -0.49,-10.42 -5.33,-15.22 -3.21,-3.18 -7.02,-3.85 -11.18,-3.96l-5.41 0 -0.33 0 -0.32 0 -0.33 0 -0.32 0 -0.32 0 -0.33 0 -0.32 0 -0.33 0 -0.32 0 -0.33 0 -0.32 0 -0.33 0 -0.32 0 -0.33 0 -0.32 0 -0.33 0 -0.32 0 -0.33 0 -0.32 0 -0.32 0 -0.33 0 -0.32 0 -0.33 0 -0.32 0 -0.33 0 -0.32 0 -0.33 0 -0.32 0 -0.33 0 -0.32 0 -0.33 0 -0.32 0 -0.33 0 -0.32 0 -0.32 0 -0.33 0 -0.32 0 -0.33 0 -0.32 0 -0.33 0 -0.32 0 -0.33 0 -0.32 0 -0.33 0 -0.32 0 -0.33 0 -0.32 0 -0.32 0 -0.33 0 -0.32 0 -0.33 0 -0.32 0 -0.33 0 -0.32 0 -0.33 0 -0.32 0 -0.33 0 -0.32 0 -0.33 0 -0.32 0 -0.33 0 -0.32 0 -0.32 0 -0.33 0zm-21.3 58.71c0,1.94 1.72,3.92 3.72,3.92l25.05 0c4.85,0 4.85,-7.83 0,-7.83l-25.05 0c-2,0 -3.72,1.98 -3.72,3.91zm0 -31.31c0,1.93 1.72,3.91 3.72,3.91l40.9 0c1.96,0 3.72,-1.98 3.72,-3.91 0,-1.94 -1.76,-3.92 -3.72,-3.92l-40.9 0c-2,0 -3.72,1.98 -3.72,3.92zm0 15.66c0,1.93 1.72,3.91 3.72,3.91l40.9 0c1.96,0 3.72,-1.98 3.72,-3.91 0,-1.94 -1.76,-3.92 -3.72,-3.92l-40.9 0c-2,0 -3.72,1.98 -3.72,3.92zm36.79 47.36c0.29,-1.21 0.65,-2.42 1.05,-3.65 1.76,-5.36 0.27,-2.85 5.95,-8.53 1.42,-1.43 8.75,-8.95 9.64,-9.54l5.43 5.33 -14.34 14.34 -7.73 2.05zm22.27 -27.55c0.91,-0.62 2.04,-2.19 4.34,-1.61 3.69,0.92 3.74,5.33 1.19,7.04l-5.53 -5.43zm-32.25 33.42c0,2.82 2.47,4.65 6.09,3.55l13.48 -3.74c3.11,-0.86 3.1,-1.44 5.73,-4.06l19.64 -19.7c3.72,-4.75 3.35,-11.44 -0.65,-15.44 -2.73,-2.72 -5.11,-3.67 -9.25,-3.67 -5.37,0 -8.59,4.38 -11.8,7.59l-17.12 17.12c-1.08,1.06 -1.21,1.57 -1.69,3.21l-3.41 11.27c-0.25,0.9 -1.02,3.03 -1.02,3.87z"/>
   </clipPath>
     <mask id="id1">
  <linearGradient id="id2" gradientUnits="userSpaceOnUse" x1="28.32" y1="93.13" x2="28.32" y2="44.97">
   <stop offset="0" style="stop-opacity:1; stop-color:white"/>
   <stop offset="1" style="stop-opacity:0; stop-color:white"/>
  </linearGradient>
      <rect style="fill:url(#id2)" x="-14.06" y="37.92" width="108.43" height="94.73"/>
     </mask>
 </defs>
 <g id="Слой_x0020_1">
  <metadata id="CorelCorpID_0Corel-Layer"/>
  <path class="fil0" d="M36.11 0.74l-19.63 0c-2.26,0.05 -4.01,0.13 -4.72,0.28 -1.22,0.24 -2.7,0.73 -3.68,1.21 -2.03,1 -4.2,2.76 -5.49,4.49 -3.71,4.94 -3.44,8.12 -3.44,16.33l0 59.3c0,6.84 0.78,10.06 5.23,14.54 3.56,3.58 7.76,4.02 12.56,4.06l3.15 0 8.34 0c1.67,-0.32 2.9,-1.11 3.42,-2.93 0.44,-1.53 -0.19,-2.85 -1.01,-3.71 -0.18,-0.19 -0.02,-0.05 -0.29,-0.29 -0.02,-0.02 -0.3,-0.25 -0.32,-0.27 -0.31,-0.23 -0.41,-0.29 -0.75,-0.42 -0.62,-0.24 -1.47,-0.22 -2.34,-0.21 -3.27,0.02 -12.44,0.23 -14.47,-0.41 -6.78,-2.12 -5.5,-8.97 -5.5,-14.27l0 -59.31c0,-4.15 0,-5.46 1.93,-7.86 1.72,-2.14 4.45,-2.72 7.27,-2.71 6.58,0.04 13.16,0.01 19.74,0.01 6.86,0 13.72,0 20.58,0 3.31,0 7.05,-0.3 9.46,0.72 6.17,2.6 4.63,9.87 4.63,15.91 0,3.46 0,6.92 0,10.38 0,3.94 -0.56,6.71 2.04,8.33 1.15,0.72 3.03,0.65 4.07,-0.07 1.05,-0.73 1.8,-1.78 1.91,-3.38 0.23,-3.05 0.01,-16.36 0.01,-20.54 0,-7.15 -0.49,-10.42 -5.33,-15.22 -3.21,-3.18 -7.02,-3.85 -11.18,-3.96l-5.41 0 -0.33 0 -0.32 0 -0.33 0 -0.32 0 -0.32 0 -0.33 0 -0.32 0 -0.33 0 -0.32 0 -0.33 0 -0.32 0 -0.33 0 -0.32 0 -0.33 0 -0.32 0 -0.33 0 -0.32 0 -0.33 0 -0.32 0 -0.32 0 -0.33 0 -0.32 0 -0.33 0 -0.32 0 -0.33 0 -0.32 0 -0.33 0 -0.32 0 -0.33 0 -0.32 0 -0.33 0 -0.32 0 -0.33 0 -0.32 0 -0.32 0 -0.33 0 -0.32 0 -0.33 0 -0.32 0 -0.33 0 -0.32 0 -0.33 0 -0.32 0 -0.33 0 -0.32 0 -0.33 0 -0.32 0 -0.32 0 -0.33 0 -0.32 0 -0.33 0 -0.32 0 -0.33 0 -0.32 0 -0.33 0 -0.32 0 -0.33 0 -0.32 0 -0.33 0 -0.32 0 -0.33 0 -0.32 0 -0.32 0 -0.33 0zm-21.3 58.71c0,1.94 1.72,3.92 3.72,3.92l25.05 0c4.85,0 4.85,-7.83 0,-7.83l-25.05 0c-2,0 -3.72,1.98 -3.72,3.91zm0 -31.31c0,1.93 1.72,3.91 3.72,3.91l40.9 0c1.96,0 3.72,-1.98 3.72,-3.91 0,-1.94 -1.76,-3.92 -3.72,-3.92l-40.9 0c-2,0 -3.72,1.98 -3.72,3.92zm0 15.66c0,1.93 1.72,3.91 3.72,3.91l40.9 0c1.96,0 3.72,-1.98 3.72,-3.91 0,-1.94 -1.76,-3.92 -3.72,-3.92l-40.9 0c-2,0 -3.72,1.98 -3.72,3.92zm36.79 47.36c0.29,-1.21 0.65,-2.42 1.05,-3.65 1.76,-5.36 0.27,-2.85 5.95,-8.53 1.42,-1.43 8.75,-8.95 9.64,-9.54l5.43 5.33 -14.34 14.34 -7.73 2.05zm22.27 -27.55c0.91,-0.62 2.04,-2.19 4.34,-1.61 3.69,0.92 3.74,5.33 1.19,7.04l-5.53 -5.43zm-32.25 33.42c0,2.82 2.47,4.65 6.09,3.55l13.48 -3.74c3.11,-0.86 3.1,-1.44 5.73,-4.06l19.64 -19.7c3.72,-4.75 3.35,-11.44 -0.65,-15.44 -2.73,-2.72 -5.11,-3.67 -9.25,-3.67 -5.37,0 -8.59,4.38 -11.8,7.59l-17.12 17.12c-1.08,1.06 -1.21,1.57 -1.69,3.21l-3.41 11.27c-0.25,0.9 -1.02,3.03 -1.02,3.87z"/>
  <g style="clip-path:url(#id0)">
   <g id="_2142262110896">
    <polygon id="_1" class="fil1" style="mask:url(#id1)" points="-12.88,39.1 93.19,39.1 93.19,131.47 -12.88,131.47 "/>
   </g>
  </g>
  <path class="fil2" d="M36.11 0.74l-19.63 0c-2.26,0.05 -4.01,0.13 -4.72,0.28 -1.22,0.24 -2.7,0.73 -3.68,1.21 -2.03,1 -4.2,2.76 -5.49,4.49 -3.71,4.94 -3.44,8.12 -3.44,16.33l0 59.3c0,6.84 0.78,10.06 5.23,14.54 3.56,3.58 7.76,4.02 12.56,4.06l3.15 0 8.34 0c1.67,-0.32 2.9,-1.11 3.42,-2.93 0.44,-1.53 -0.19,-2.85 -1.01,-3.71 -0.18,-0.19 -0.02,-0.05 -0.29,-0.29 -0.02,-0.02 -0.3,-0.25 -0.32,-0.27 -0.31,-0.23 -0.41,-0.29 -0.75,-0.42 -0.62,-0.24 -1.47,-0.22 -2.34,-0.21 -3.27,0.02 -12.44,0.23 -14.47,-0.41 -6.78,-2.12 -5.5,-8.97 -5.5,-14.27l0 -59.31c0,-4.15 0,-5.46 1.93,-7.86 1.72,-2.14 4.45,-2.72 7.27,-2.71 6.58,0.04 13.16,0.01 19.74,0.01 6.86,0 13.72,0 20.58,0 3.31,0 7.05,-0.3 9.46,0.72 6.17,2.6 4.63,9.87 4.63,15.91 0,3.46 0,6.92 0,10.38 0,3.94 -0.56,6.71 2.04,8.33 1.15,0.72 3.03,0.65 4.07,-0.07 1.05,-0.73 1.8,-1.78 1.91,-3.38 0.23,-3.05 0.01,-16.36 0.01,-20.54 0,-7.15 -0.49,-10.42 -5.33,-15.22 -3.21,-3.18 -7.02,-3.85 -11.18,-3.96l-5.41 0 -0.33 0 -0.32 0 -0.33 0 -0.32 0 -0.32 0 -0.33 0 -0.32 0 -0.33 0 -0.32 0 -0.33 0 -0.32 0 -0.33 0 -0.32 0 -0.33 0 -0.32 0 -0.33 0 -0.32 0 -0.33 0 -0.32 0 -0.32 0 -0.33 0 -0.32 0 -0.33 0 -0.32 0 -0.33 0 -0.32 0 -0.33 0 -0.32 0 -0.33 0 -0.32 0 -0.33 0 -0.32 0 -0.33 0 -0.32 0 -0.32 0 -0.33 0 -0.32 0 -0.33 0 -0.32 0 -0.33 0 -0.32 0 -0.33 0 -0.32 0 -0.33 0 -0.32 0 -0.33 0 -0.32 0 -0.32 0 -0.33 0 -0.32 0 -0.33 0 -0.32 0 -0.33 0 -0.32 0 -0.33 0 -0.32 0 -0.33 0 -0.32 0 -0.33 0 -0.32 0 -0.33 0 -0.32 0 -0.32 0 -0.33 0zm-21.3 58.71c0,1.94 1.72,3.92 3.72,3.92l25.05 0c4.85,0 4.85,-7.83 0,-7.83l-25.05 0c-2,0 -3.72,1.98 -3.72,3.91zm0 -31.31c0,1.93 1.72,3.91 3.72,3.91l40.9 0c1.96,0 3.72,-1.98 3.72,-3.91 0,-1.94 -1.76,-3.92 -3.72,-3.92l-40.9 0c-2,0 -3.72,1.98 -3.72,3.92zm0 15.66c0,1.93 1.72,3.91 3.72,3.91l40.9 0c1.96,0 3.72,-1.98 3.72,-3.91 0,-1.94 -1.76,-3.92 -3.72,-3.92l-40.9 0c-2,0 -3.72,1.98 -3.72,3.92zm36.79 47.36c0.29,-1.21 0.65,-2.42 1.05,-3.65 1.76,-5.36 0.27,-2.85 5.95,-8.53 1.42,-1.43 8.75,-8.95 9.64,-9.54l5.43 5.33 -14.34 14.34 -7.73 2.05zm22.27 -27.55c0.91,-0.62 2.04,-2.19 4.34,-1.61 3.69,0.92 3.74,5.33 1.19,7.04l-5.53 -5.43zm-32.25 33.42c0,2.82 2.47,4.65 6.09,3.55l13.48 -3.74c3.11,-0.86 3.1,-1.44 5.73,-4.06l19.64 -19.7c3.72,-4.75 3.35,-11.44 -0.65,-15.44 -2.73,-2.72 -5.11,-3.67 -9.25,-3.67 -5.37,0 -8.59,4.38 -11.8,7.59l-17.12 17.12c-1.08,1.06 -1.21,1.57 -1.69,3.21l-3.41 11.27c-0.25,0.9 -1.02,3.03 -1.02,3.87z"/>
 </g>
</svg>
